<svg xmlns="http://www.w3.org/2000/svg" xmlns:xlink="http://www.w3.org/1999/xlink" width="377" zoomAndPan="magnify" viewBox="0 0 282.96 283.499996" height="377" preserveAspectRatio="xMidYMid meet" version="1.0"><defs><clipPath id="d22697e7c0"><path d="M 225 28.246094 L 249 28.246094 L 249 52 L 225 52 Z M 225 28.246094 " clip-rule="nonzero"/></clipPath><clipPath id="6f6b0eba2f"><path d="M 63 241 L 76 241 L 76 253.949219 L 63 253.949219 Z M 63 241 " clip-rule="nonzero"/></clipPath></defs><path fill="#78a0cf" d="M 34.816406 74.800781 C 34.4375 74.800781 34.0625 74.835938 33.691406 74.910156 C 33.320312 74.984375 32.960938 75.09375 32.609375 75.238281 C 32.261719 75.382812 31.929688 75.5625 31.613281 75.769531 C 31.300781 75.980469 31.007812 76.21875 30.742188 76.488281 C 30.472656 76.753906 30.234375 77.046875 30.023438 77.363281 C 29.8125 77.675781 29.636719 78.007812 29.492188 78.359375 C 29.347656 78.707031 29.238281 79.070312 29.164062 79.441406 C 29.089844 79.8125 29.050781 80.1875 29.050781 80.566406 C 29.050781 80.941406 29.089844 81.316406 29.164062 81.6875 C 29.238281 82.0625 29.347656 82.421875 29.492188 82.769531 C 29.636719 83.121094 29.8125 83.453125 30.023438 83.769531 C 30.234375 84.082031 30.472656 84.375 30.742188 84.640625 C 31.007812 84.910156 31.300781 85.148438 31.613281 85.359375 C 31.929688 85.570312 32.261719 85.746094 32.609375 85.890625 C 32.960938 86.035156 33.320312 86.144531 33.691406 86.21875 C 34.0625 86.292969 34.4375 86.328125 34.816406 86.328125 C 35.195312 86.328125 35.570312 86.292969 35.941406 86.21875 C 36.3125 86.144531 36.671875 86.035156 37.023438 85.890625 C 37.375 85.746094 37.707031 85.570312 38.019531 85.359375 C 38.335938 85.148438 38.625 84.910156 38.894531 84.640625 C 39.160156 84.375 39.402344 84.082031 39.609375 83.769531 C 39.820312 83.453125 40 83.121094 40.144531 82.769531 C 40.289062 82.421875 40.398438 82.0625 40.472656 81.6875 C 40.546875 81.316406 40.582031 80.941406 40.582031 80.566406 C 40.582031 80.1875 40.546875 79.8125 40.472656 79.441406 C 40.398438 79.070312 40.289062 78.707031 40.144531 78.359375 C 40 78.007812 39.820312 77.675781 39.609375 77.363281 C 39.402344 77.046875 39.160156 76.753906 38.894531 76.488281 C 38.625 76.21875 38.335938 75.980469 38.019531 75.769531 C 37.707031 75.5625 37.375 75.382812 37.023438 75.238281 C 36.671875 75.09375 36.3125 74.984375 35.941406 74.910156 C 35.570312 74.835938 35.195312 74.800781 34.816406 74.800781 Z M 34.816406 74.800781 " fill-opacity="1" fill-rule="nonzero"/><path fill="#f1bc19" d="M 219.300781 31.5625 C 218.917969 31.5625 218.550781 31.632812 218.195312 31.78125 C 217.84375 31.925781 217.53125 32.136719 217.261719 32.40625 C 216.992188 32.675781 216.78125 32.988281 216.636719 33.339844 C 216.488281 33.695312 216.417969 34.0625 216.417969 34.445312 C 216.417969 34.828125 216.488281 35.195312 216.636719 35.546875 C 216.78125 35.898438 216.992188 36.210938 217.261719 36.480469 C 217.53125 36.753906 217.84375 36.960938 218.195312 37.105469 C 218.550781 37.253906 218.917969 37.328125 219.300781 37.328125 C 219.683594 37.328125 220.050781 37.253906 220.402344 37.105469 C 220.753906 36.960938 221.066406 36.753906 221.335938 36.480469 C 221.609375 36.210938 221.816406 35.898438 221.960938 35.546875 C 222.109375 35.195312 222.183594 34.828125 222.183594 34.445312 C 222.183594 34.0625 222.109375 33.695312 221.960938 33.339844 C 221.816406 32.988281 221.609375 32.675781 221.335938 32.40625 C 221.066406 32.136719 220.753906 31.925781 220.402344 31.78125 C 220.050781 31.632812 219.683594 31.5625 219.300781 31.5625 Z M 219.300781 31.5625 " fill-opacity="1" fill-rule="nonzero"/><path fill="#cee1f4" d="M 141.472656 34.445312 C 139.726562 34.445312 137.980469 34.488281 136.238281 34.574219 C 134.496094 34.660156 132.753906 34.785156 131.015625 34.957031 C 129.28125 35.128906 127.546875 35.34375 125.820312 35.597656 C 124.09375 35.855469 122.375 36.152344 120.664062 36.492188 C 118.953125 36.832031 117.25 37.214844 115.554688 37.640625 C 113.863281 38.066406 112.179688 38.53125 110.511719 39.035156 C 108.839844 39.542969 107.183594 40.089844 105.539062 40.679688 C 103.898438 41.265625 102.269531 41.894531 100.65625 42.5625 C 99.042969 43.230469 97.449219 43.9375 95.871094 44.683594 C 94.292969 45.429688 92.734375 46.214844 91.195312 47.039062 C 89.65625 47.859375 88.136719 48.71875 86.640625 49.617188 C 85.144531 50.515625 83.667969 51.449219 82.21875 52.417969 C 80.765625 53.386719 79.339844 54.394531 77.9375 55.433594 C 76.535156 56.472656 75.160156 57.546875 73.8125 58.652344 C 72.460938 59.761719 71.140625 60.902344 69.847656 62.074219 C 68.554688 63.246094 67.289062 64.449219 66.054688 65.683594 C 64.820312 66.917969 63.617188 68.179688 62.445312 69.472656 C 61.273438 70.765625 60.132812 72.089844 59.027344 73.4375 C 57.917969 74.785156 56.847656 76.164062 55.804688 77.5625 C 54.765625 78.964844 53.761719 80.394531 52.792969 81.84375 C 51.820312 83.296875 50.886719 84.769531 49.992188 86.265625 C 49.09375 87.765625 48.234375 89.28125 47.410156 90.820312 C 46.589844 92.359375 45.804688 93.917969 45.058594 95.496094 C 44.3125 97.074219 43.605469 98.671875 42.9375 100.285156 C 42.269531 101.894531 41.640625 103.523438 41.050781 105.167969 C 40.464844 106.8125 39.917969 108.46875 39.410156 110.136719 C 38.902344 111.808594 38.4375 113.488281 38.011719 115.183594 C 37.589844 116.875 37.207031 118.578125 36.867188 120.289062 C 36.527344 122.003906 36.226562 123.722656 35.972656 125.449219 C 35.714844 127.175781 35.503906 128.90625 35.332031 130.644531 C 35.160156 132.382812 35.03125 134.121094 34.945312 135.863281 C 34.859375 137.609375 34.816406 139.351562 34.816406 141.097656 C 34.816406 142.84375 34.859375 144.585938 34.945312 146.332031 C 35.03125 148.074219 35.160156 149.816406 35.332031 151.550781 C 35.503906 153.289062 35.714844 155.019531 35.972656 156.746094 C 36.226562 158.472656 36.527344 160.191406 36.867188 161.90625 C 37.207031 163.617188 37.589844 165.320312 38.011719 167.011719 C 38.4375 168.707031 38.902344 170.386719 39.410156 172.058594 C 39.917969 173.726562 40.464844 175.386719 41.050781 177.027344 C 41.640625 178.671875 42.269531 180.300781 42.9375 181.914062 C 43.605469 183.523438 44.3125 185.121094 45.058594 186.699219 C 45.804688 188.277344 46.589844 189.835938 47.410156 191.375 C 48.234375 192.914062 49.09375 194.433594 49.992188 195.929688 C 50.886719 197.425781 51.820312 198.898438 52.792969 200.351562 C 53.761719 201.804688 54.765625 203.230469 55.804688 204.632812 C 56.847656 206.035156 57.917969 207.410156 59.027344 208.757812 C 60.132812 210.109375 61.273438 211.429688 62.445312 212.722656 C 63.617188 214.015625 64.820312 215.277344 66.054688 216.511719 C 67.289062 217.746094 68.554688 218.949219 69.847656 220.125 C 71.140625 221.296875 72.460938 222.433594 73.8125 223.542969 C 75.160156 224.648438 76.535156 225.722656 77.9375 226.761719 C 79.339844 227.804688 80.765625 228.808594 82.21875 229.777344 C 83.667969 230.746094 85.144531 231.679688 86.640625 232.578125 C 88.136719 233.476562 89.65625 234.335938 91.195312 235.15625 C 92.734375 235.980469 94.292969 236.765625 95.871094 237.511719 C 97.449219 238.257812 99.042969 238.964844 100.65625 239.632812 C 102.269531 240.300781 103.898438 240.929688 105.539062 241.515625 C 107.183594 242.105469 108.839844 242.652344 110.511719 243.160156 C 112.179688 243.664062 113.863281 244.132812 115.554688 244.554688 C 117.25 244.980469 118.953125 245.363281 120.664062 245.703125 C 122.375 246.042969 124.09375 246.339844 125.820312 246.597656 C 127.546875 246.851562 129.28125 247.066406 131.015625 247.238281 C 132.753906 247.410156 134.496094 247.539062 136.238281 247.625 C 137.980469 247.707031 139.726562 247.75 141.472656 247.75 C 143.214844 247.75 144.960938 247.707031 146.703125 247.625 C 148.449219 247.539062 150.1875 247.410156 151.925781 247.238281 C 153.660156 247.066406 155.394531 246.851562 157.121094 246.597656 C 158.847656 246.339844 160.566406 246.042969 162.277344 245.703125 C 163.988281 245.363281 165.691406 244.980469 167.386719 244.554688 C 169.078125 244.132812 170.761719 243.664062 172.429688 243.160156 C 174.101562 242.652344 175.757812 242.105469 177.402344 241.515625 C 179.046875 240.929688 180.671875 240.300781 182.285156 239.632812 C 183.898438 238.964844 185.492188 238.257812 187.070312 237.511719 C 188.648438 236.765625 190.207031 235.980469 191.746094 235.15625 C 193.285156 234.335938 194.804688 233.476562 196.300781 232.578125 C 197.800781 231.679688 199.273438 230.746094 200.726562 229.777344 C 202.175781 228.808594 203.601562 227.804688 205.003906 226.761719 C 206.40625 225.722656 207.78125 224.648438 209.132812 223.542969 C 210.480469 222.433594 211.800781 221.296875 213.09375 220.125 C 214.386719 218.949219 215.652344 217.746094 216.886719 216.511719 C 218.121094 215.277344 219.324219 214.015625 220.496094 212.722656 C 221.667969 211.429688 222.808594 210.109375 223.914062 208.757812 C 225.023438 207.410156 226.097656 206.035156 227.136719 204.632812 C 228.175781 203.230469 229.179688 201.804688 230.152344 200.351562 C 231.121094 198.898438 232.054688 197.425781 232.949219 195.929688 C 233.847656 194.433594 234.707031 192.914062 235.53125 191.375 C 236.355469 189.835938 237.136719 188.277344 237.886719 186.699219 C 238.632812 185.121094 239.339844 183.523438 240.007812 181.914062 C 240.675781 180.300781 241.300781 178.671875 241.890625 177.027344 C 242.476562 175.386719 243.027344 173.726562 243.53125 172.058594 C 244.039062 170.386719 244.503906 168.707031 244.929688 167.011719 C 245.351562 165.320312 245.734375 163.617188 246.074219 161.90625 C 246.417969 160.191406 246.714844 158.472656 246.96875 156.746094 C 247.226562 155.019531 247.441406 153.289062 247.609375 151.550781 C 247.78125 149.816406 247.910156 148.074219 247.996094 146.332031 C 248.082031 144.585938 248.125 142.84375 248.125 141.097656 C 248.125 139.351562 248.082031 137.609375 247.996094 135.863281 C 247.910156 134.121094 247.78125 132.382812 247.609375 130.644531 C 247.441406 128.90625 247.226562 127.175781 246.96875 125.449219 C 246.714844 123.722656 246.417969 122.003906 246.074219 120.289062 C 245.734375 118.578125 245.351562 116.875 244.929688 115.183594 C 244.503906 113.488281 244.039062 111.808594 243.53125 110.136719 C 243.027344 108.46875 242.476562 106.8125 241.890625 105.167969 C 241.300781 103.523438 240.675781 101.894531 240.007812 100.285156 C 239.339844 98.671875 238.632812 97.074219 237.886719 95.496094 C 237.136719 93.917969 236.355469 92.359375 235.53125 90.820312 C 234.707031 89.28125 233.847656 87.765625 232.949219 86.265625 C 232.054688 84.769531 231.121094 83.296875 230.152344 81.84375 C 229.179688 80.394531 228.175781 78.964844 227.136719 77.5625 C 226.097656 76.164062 225.023438 74.785156 223.914062 73.4375 C 222.808594 72.089844 221.667969 70.765625 220.496094 69.472656 C 219.324219 68.179688 218.121094 66.917969 216.886719 65.683594 C 215.652344 64.449219 214.386719 63.246094 213.09375 62.074219 C 211.800781 60.902344 210.480469 59.761719 209.132812 58.652344 C 207.78125 57.546875 206.40625 56.472656 205.003906 55.433594 C 203.601562 54.394531 202.175781 53.386719 200.726562 52.417969 C 199.273438 51.449219 197.800781 50.515625 196.300781 49.617188 C 194.804688 48.71875 193.285156 47.859375 191.746094 47.039062 C 190.207031 46.214844 188.648438 45.429688 187.070312 44.683594 C 185.492188 43.9375 183.898438 43.230469 182.285156 42.5625 C 180.671875 41.894531 179.046875 41.265625 177.402344 40.679688 C 175.757812 40.089844 174.101562 39.542969 172.429688 39.035156 C 170.761719 38.53125 169.078125 38.066406 167.386719 37.640625 C 165.691406 37.214844 163.988281 36.832031 162.277344 36.492188 C 160.566406 36.152344 158.847656 35.855469 157.121094 35.597656 C 155.394531 35.34375 153.660156 35.128906 151.925781 34.957031 C 150.1875 34.785156 148.449219 34.660156 146.703125 34.574219 C 144.960938 34.488281 143.214844 34.445312 141.472656 34.445312 Z M 141.472656 34.445312 " fill-opacity="1" fill-rule="nonzero"/><g clip-path="url(#d22697e7c0)"><path fill="#f1bc19" d="M 236.59375 28.679688 C 235.835938 28.679688 235.085938 28.753906 234.34375 28.902344 C 233.601562 29.046875 232.882812 29.265625 232.183594 29.558594 C 231.484375 29.847656 230.820312 30.203125 230.1875 30.621094 C 229.558594 31.042969 228.976562 31.519531 228.441406 32.054688 C 227.90625 32.589844 227.429688 33.175781 227.007812 33.804688 C 226.585938 34.433594 226.230469 35.097656 225.941406 35.796875 C 225.652344 36.496094 225.433594 37.21875 225.285156 37.960938 C 225.136719 38.703125 225.066406 39.453125 225.066406 40.210938 C 225.066406 40.964844 225.136719 41.714844 225.285156 42.457031 C 225.433594 43.199219 225.652344 43.921875 225.941406 44.621094 C 226.230469 45.320312 226.585938 45.984375 227.007812 46.613281 C 227.429688 47.246094 227.90625 47.828125 228.441406 48.363281 C 228.976562 48.898438 229.558594 49.375 230.1875 49.796875 C 230.820312 50.214844 231.484375 50.570312 232.183594 50.863281 C 232.882812 51.152344 233.601562 51.371094 234.34375 51.519531 C 235.085938 51.664062 235.835938 51.738281 236.59375 51.738281 C 237.351562 51.738281 238.101562 51.664062 238.84375 51.519531 C 239.585938 51.371094 240.308594 51.152344 241.007812 50.863281 C 241.707031 50.570312 242.371094 50.214844 243 49.796875 C 243.628906 49.375 244.210938 48.898438 244.746094 48.363281 C 245.28125 47.828125 245.761719 47.246094 246.183594 46.613281 C 246.601562 45.984375 246.957031 45.320312 247.246094 44.621094 C 247.535156 43.921875 247.753906 43.199219 247.902344 42.457031 C 248.050781 41.714844 248.125 40.964844 248.125 40.210938 C 248.125 39.453125 248.050781 38.703125 247.902344 37.960938 C 247.753906 37.21875 247.535156 36.496094 247.246094 35.796875 C 246.957031 35.097656 246.601562 34.433594 246.183594 33.804688 C 245.761719 33.175781 245.28125 32.589844 244.746094 32.054688 C 244.210938 31.519531 243.628906 31.042969 243 30.621094 C 242.371094 30.203125 241.707031 29.847656 241.007812 29.558594 C 240.308594 29.265625 239.585938 29.046875 238.84375 28.902344 C 238.101562 28.753906 237.351562 28.679688 236.59375 28.679688 Z M 236.59375 28.679688 " fill-opacity="1" fill-rule="nonzero"/></g><path fill="#78a0cf" d="M 248.125 60.386719 C 247.746094 60.386719 247.371094 60.425781 247 60.496094 C 246.628906 60.570312 246.269531 60.679688 245.917969 60.824219 C 245.570312 60.96875 245.238281 61.148438 244.921875 61.359375 C 244.605469 61.570312 244.316406 61.808594 244.046875 62.074219 C 243.78125 62.34375 243.542969 62.632812 243.332031 62.949219 C 243.121094 63.265625 242.945312 63.597656 242.796875 63.945312 C 242.652344 64.296875 242.542969 64.65625 242.46875 65.027344 C 242.398438 65.398438 242.359375 65.773438 242.359375 66.152344 C 242.359375 66.53125 242.398438 66.90625 242.46875 67.277344 C 242.542969 67.648438 242.652344 68.007812 242.796875 68.359375 C 242.945312 68.707031 243.121094 69.039062 243.332031 69.355469 C 243.542969 69.667969 243.78125 69.960938 244.046875 70.230469 C 244.316406 70.496094 244.605469 70.734375 244.921875 70.945312 C 245.238281 71.15625 245.570312 71.332031 245.917969 71.476562 C 246.269531 71.625 246.628906 71.734375 247 71.804688 C 247.371094 71.878906 247.746094 71.917969 248.125 71.917969 C 248.503906 71.917969 248.878906 71.878906 249.25 71.804688 C 249.621094 71.734375 249.980469 71.625 250.332031 71.476562 C 250.679688 71.332031 251.011719 71.15625 251.328125 70.945312 C 251.640625 70.734375 251.933594 70.496094 252.203125 70.230469 C 252.46875 69.960938 252.707031 69.667969 252.917969 69.355469 C 253.128906 69.039062 253.304688 68.707031 253.449219 68.359375 C 253.597656 68.007812 253.707031 67.648438 253.777344 67.277344 C 253.851562 66.90625 253.890625 66.53125 253.890625 66.152344 C 253.890625 65.773438 253.851562 65.398438 253.777344 65.027344 C 253.707031 64.65625 253.597656 64.296875 253.449219 63.945312 C 253.304688 63.597656 253.128906 63.265625 252.917969 62.949219 C 252.707031 62.632812 252.46875 62.34375 252.203125 62.074219 C 251.933594 61.808594 251.640625 61.570312 251.328125 61.359375 C 251.011719 61.148438 250.679688 60.96875 250.332031 60.824219 C 249.980469 60.679688 249.621094 60.570312 249.25 60.496094 C 248.878906 60.425781 248.503906 60.386719 248.125 60.386719 Z M 248.125 60.386719 " fill-opacity="1" fill-rule="nonzero"/><path fill="#fbcd59" d="M 230.828125 210.277344 C 230.449219 210.277344 230.078125 210.316406 229.703125 210.390625 C 229.332031 210.464844 228.972656 210.574219 228.625 210.71875 C 228.273438 210.863281 227.941406 211.039062 227.625 211.25 C 227.3125 211.460938 227.019531 211.699219 226.753906 211.96875 C 226.484375 212.234375 226.246094 212.527344 226.035156 212.839844 C 225.824219 213.15625 225.648438 213.488281 225.503906 213.835938 C 225.359375 214.1875 225.25 214.546875 225.175781 214.917969 C 225.101562 215.289062 225.066406 215.664062 225.066406 216.042969 C 225.066406 216.421875 225.101562 216.796875 225.175781 217.167969 C 225.25 217.539062 225.359375 217.898438 225.503906 218.25 C 225.648438 218.601562 225.824219 218.933594 226.035156 219.246094 C 226.246094 219.5625 226.484375 219.851562 226.753906 220.121094 C 227.019531 220.386719 227.3125 220.625 227.625 220.835938 C 227.941406 221.046875 228.273438 221.226562 228.625 221.371094 C 228.972656 221.515625 229.332031 221.625 229.703125 221.699219 C 230.078125 221.773438 230.449219 221.808594 230.828125 221.808594 C 231.207031 221.808594 231.582031 221.773438 231.953125 221.699219 C 232.324219 221.625 232.6875 221.515625 233.035156 221.371094 C 233.386719 221.226562 233.71875 221.046875 234.03125 220.835938 C 234.347656 220.625 234.636719 220.386719 234.90625 220.121094 C 235.175781 219.851562 235.414062 219.5625 235.625 219.246094 C 235.832031 218.933594 236.011719 218.601562 236.15625 218.25 C 236.300781 217.898438 236.410156 217.539062 236.484375 217.167969 C 236.558594 216.796875 236.59375 216.421875 236.59375 216.042969 C 236.59375 215.664062 236.558594 215.289062 236.484375 214.917969 C 236.410156 214.546875 236.300781 214.1875 236.15625 213.835938 C 236.011719 213.488281 235.832031 213.15625 235.625 212.839844 C 235.414062 212.527344 235.175781 212.234375 234.90625 211.96875 C 234.636719 211.699219 234.347656 211.460938 234.03125 211.25 C 233.71875 211.039062 233.386719 210.863281 233.035156 210.71875 C 232.6875 210.574219 232.324219 210.464844 231.953125 210.390625 C 231.582031 210.316406 231.207031 210.277344 230.828125 210.277344 Z M 40.582031 167.039062 C 39.824219 167.039062 39.074219 167.113281 38.332031 167.261719 C 37.589844 167.410156 36.871094 167.628906 36.171875 167.917969 C 35.46875 168.207031 34.804688 168.5625 34.175781 168.984375 C 33.546875 169.40625 32.964844 169.882812 32.429688 170.417969 C 31.894531 170.953125 31.417969 171.535156 30.996094 172.164062 C 30.574219 172.792969 30.21875 173.460938 29.929688 174.160156 C 29.640625 174.859375 29.421875 175.578125 29.273438 176.320312 C 29.125 177.0625 29.050781 177.8125 29.050781 178.570312 C 29.050781 179.328125 29.125 180.078125 29.273438 180.820312 C 29.421875 181.5625 29.640625 182.285156 29.929688 182.984375 C 30.21875 183.683594 30.574219 184.347656 30.996094 184.976562 C 31.417969 185.605469 31.894531 186.1875 32.429688 186.722656 C 32.964844 187.257812 33.546875 187.738281 34.175781 188.15625 C 34.804688 188.578125 35.46875 188.933594 36.171875 189.222656 C 36.871094 189.511719 37.589844 189.730469 38.332031 189.878906 C 39.074219 190.027344 39.824219 190.101562 40.582031 190.101562 C 41.339844 190.101562 42.089844 190.027344 42.832031 189.878906 C 43.574219 189.730469 44.296875 189.511719 44.996094 189.222656 C 45.695312 188.933594 46.359375 188.578125 46.988281 188.15625 C 47.617188 187.738281 48.199219 187.257812 48.734375 186.722656 C 49.269531 186.1875 49.75 185.605469 50.167969 184.976562 C 50.589844 184.347656 50.945312 183.683594 51.234375 182.984375 C 51.523438 182.285156 51.742188 181.5625 51.890625 180.820312 C 52.039062 180.078125 52.113281 179.328125 52.113281 178.570312 C 52.113281 177.8125 52.039062 177.0625 51.890625 176.320312 C 51.742188 175.578125 51.523438 174.859375 51.234375 174.160156 C 50.945312 173.460938 50.589844 172.792969 50.167969 172.164062 C 49.75 171.535156 49.269531 170.953125 48.734375 170.417969 C 48.199219 169.882812 47.617188 169.40625 46.988281 168.984375 C 46.359375 168.5625 45.695312 168.207031 44.996094 167.917969 C 44.296875 167.628906 43.574219 167.410156 42.832031 167.261719 C 42.089844 167.113281 41.339844 167.039062 40.582031 167.039062 Z M 40.582031 167.039062 " fill-opacity="1" fill-rule="nonzero"/><g clip-path="url(#6f6b0eba2f)"><path fill="#78a0cf" d="M 69.40625 241.988281 C 69.027344 241.988281 68.65625 242.023438 68.28125 242.097656 C 67.910156 242.171875 67.550781 242.28125 67.203125 242.425781 C 66.851562 242.570312 66.519531 242.746094 66.203125 242.957031 C 65.890625 243.167969 65.597656 243.40625 65.332031 243.675781 C 65.0625 243.941406 64.824219 244.234375 64.613281 244.546875 C 64.402344 244.863281 64.226562 245.195312 64.082031 245.546875 C 63.9375 245.894531 63.828125 246.253906 63.753906 246.628906 C 63.679688 247 63.644531 247.375 63.644531 247.75 C 63.644531 248.128906 63.679688 248.503906 63.753906 248.875 C 63.828125 249.246094 63.9375 249.609375 64.082031 249.957031 C 64.226562 250.308594 64.402344 250.640625 64.613281 250.953125 C 64.824219 251.269531 65.0625 251.558594 65.332031 251.828125 C 65.597656 252.097656 65.890625 252.335938 66.203125 252.546875 C 66.519531 252.753906 66.851562 252.933594 67.203125 253.078125 C 67.550781 253.222656 67.910156 253.332031 68.28125 253.40625 C 68.65625 253.480469 69.027344 253.515625 69.40625 253.515625 C 69.785156 253.515625 70.160156 253.480469 70.53125 253.40625 C 70.902344 253.332031 71.265625 253.222656 71.613281 253.078125 C 71.964844 252.933594 72.296875 252.753906 72.609375 252.546875 C 72.925781 252.335938 73.214844 252.097656 73.484375 251.828125 C 73.75 251.558594 73.992188 251.269531 74.203125 250.953125 C 74.410156 250.640625 74.589844 250.308594 74.734375 249.957031 C 74.878906 249.609375 74.988281 249.246094 75.0625 248.875 C 75.136719 248.503906 75.171875 248.128906 75.171875 247.75 C 75.171875 247.375 75.136719 247 75.0625 246.628906 C 74.988281 246.253906 74.878906 245.894531 74.734375 245.546875 C 74.589844 245.195312 74.410156 244.863281 74.203125 244.546875 C 73.992188 244.234375 73.75 243.941406 73.484375 243.675781 C 73.214844 243.40625 72.925781 243.167969 72.609375 242.957031 C 72.296875 242.746094 71.964844 242.570312 71.613281 242.425781 C 71.265625 242.28125 70.902344 242.171875 70.53125 242.097656 C 70.160156 242.023438 69.785156 241.988281 69.40625 241.988281 Z M 69.40625 241.988281 " fill-opacity="1" fill-rule="nonzero"/></g><path fill="#ffffff" d="M 50.671875 143.980469 C 50.199219 143.980469 49.730469 144.027344 49.265625 144.117188 C 48.800781 144.210938 48.351562 144.347656 47.914062 144.527344 C 47.476562 144.710938 47.0625 144.933594 46.667969 145.195312 C 46.273438 145.457031 45.910156 145.757812 45.574219 146.089844 C 45.242188 146.425781 44.941406 146.789062 44.679688 147.183594 C 44.417969 147.578125 44.195312 147.992188 44.011719 148.429688 C 43.832031 148.867188 43.695312 149.316406 43.601562 149.78125 C 43.511719 150.246094 43.464844 150.714844 43.464844 151.1875 C 43.464844 151.660156 43.511719 152.128906 43.601562 152.59375 C 43.695312 153.058594 43.832031 153.507812 44.011719 153.945312 C 44.195312 154.382812 44.417969 154.796875 44.679688 155.191406 C 44.941406 155.582031 45.242188 155.949219 45.574219 156.28125 C 45.910156 156.617188 46.273438 156.914062 46.667969 157.179688 C 47.0625 157.441406 47.476562 157.664062 47.914062 157.84375 C 48.351562 158.027344 48.800781 158.164062 49.265625 158.253906 C 49.730469 158.347656 50.199219 158.394531 50.671875 158.394531 C 51.144531 158.394531 51.613281 158.347656 52.078125 158.253906 C 52.542969 158.164062 52.992188 158.027344 53.429688 157.84375 C 53.867188 157.664062 54.28125 157.441406 54.675781 157.179688 C 55.066406 156.914062 55.433594 156.617188 55.765625 156.28125 C 56.101562 155.949219 56.398438 155.582031 56.664062 155.191406 C 56.925781 154.796875 57.148438 154.382812 57.328125 153.945312 C 57.511719 153.507812 57.648438 153.058594 57.738281 152.59375 C 57.832031 152.128906 57.878906 151.660156 57.878906 151.1875 C 57.878906 150.714844 57.832031 150.246094 57.738281 149.78125 C 57.648438 149.316406 57.511719 148.867188 57.328125 148.429688 C 57.148438 147.992188 56.925781 147.578125 56.664062 147.183594 C 56.398438 146.789062 56.101562 146.425781 55.765625 146.089844 C 55.433594 145.757812 55.066406 145.457031 54.675781 145.195312 C 54.28125 144.933594 53.867188 144.710938 53.429688 144.527344 C 52.992188 144.347656 52.542969 144.210938 52.078125 144.117188 C 51.613281 144.027344 51.144531 143.980469 50.671875 143.980469 Z M 50.671875 143.980469 " fill-opacity="1" fill-rule="nonzero"/><path fill="#f1bc19" d="M 57.878906 187.21875 C 57.496094 187.21875 57.128906 187.292969 56.773438 187.4375 C 56.421875 187.585938 56.109375 187.792969 55.839844 188.0625 C 55.570312 188.332031 55.359375 188.644531 55.214844 188.996094 C 55.066406 189.351562 54.996094 189.71875 54.996094 190.101562 C 54.996094 190.484375 55.066406 190.851562 55.214844 191.203125 C 55.359375 191.558594 55.570312 191.867188 55.839844 192.140625 C 56.109375 192.410156 56.421875 192.617188 56.773438 192.765625 C 57.128906 192.910156 57.496094 192.984375 57.878906 192.984375 C 58.261719 192.984375 58.628906 192.910156 58.980469 192.765625 C 59.332031 192.617188 59.644531 192.410156 59.914062 192.140625 C 60.1875 191.867188 60.394531 191.558594 60.539062 191.203125 C 60.6875 190.851562 60.761719 190.484375 60.761719 190.101562 C 60.761719 189.71875 60.6875 189.351562 60.539062 188.996094 C 60.394531 188.644531 60.1875 188.332031 59.914062 188.0625 C 59.644531 187.792969 59.332031 187.585938 58.980469 187.4375 C 58.628906 187.292969 58.261719 187.21875 57.878906 187.21875 Z M 57.878906 187.21875 " fill-opacity="1" fill-rule="nonzero"/><path fill="#ffffff" d="M 227.945312 92.09375 C 227.566406 92.09375 227.195312 92.167969 226.84375 92.3125 C 226.492188 92.460938 226.179688 92.667969 225.910156 92.9375 C 225.636719 93.210938 225.429688 93.519531 225.285156 93.875 C 225.136719 94.226562 225.066406 94.59375 225.066406 94.976562 C 225.066406 95.359375 225.136719 95.726562 225.285156 96.082031 C 225.429688 96.433594 225.636719 96.746094 225.910156 97.015625 C 226.179688 97.285156 226.492188 97.496094 226.84375 97.640625 C 227.195312 97.785156 227.566406 97.859375 227.945312 97.859375 C 228.328125 97.859375 228.695312 97.785156 229.050781 97.640625 C 229.402344 97.496094 229.714844 97.285156 229.984375 97.015625 C 230.253906 96.746094 230.464844 96.433594 230.609375 96.082031 C 230.757812 95.726562 230.828125 95.359375 230.828125 94.976562 C 230.828125 94.59375 230.757812 94.226562 230.609375 93.875 C 230.464844 93.519531 230.253906 93.210938 229.984375 92.9375 C 229.714844 92.667969 229.402344 92.460938 229.050781 92.3125 C 228.695312 92.167969 228.328125 92.09375 227.945312 92.09375 Z M 227.945312 92.09375 " fill-opacity="1" fill-rule="nonzero"/><path fill="#fdfcee" d="M 193.355469 201.632812 L 89.585938 201.632812 C 81.625 201.632812 75.171875 195.175781 75.171875 187.21875 L 75.171875 94.976562 C 75.171875 87.019531 81.625 80.566406 89.585938 80.566406 L 193.355469 80.566406 C 201.316406 80.566406 207.769531 87.019531 207.769531 94.976562 L 207.769531 187.21875 C 207.769531 195.175781 201.316406 201.632812 193.355469 201.632812 Z M 193.355469 201.632812 " fill-opacity="1" fill-rule="nonzero"/><path fill="#efeddf" d="M 75.171875 99.300781 L 207.769531 99.300781 L 207.769531 185.777344 L 75.171875 185.777344 Z M 75.171875 99.300781 " fill-opacity="1" fill-rule="nonzero"/><path fill="#836f61" d="M 73.730469 99.300781 L 134.625 99.300781 L 134.625 185.777344 L 73.730469 185.777344 Z M 73.730469 99.300781 " fill-opacity="1" fill-rule="nonzero"/><path fill="#472b29" d="M 193.355469 81.71875 C 200.667969 81.71875 206.617188 87.667969 206.617188 94.976562 L 206.617188 187.21875 C 206.617188 194.527344 200.667969 200.476562 193.355469 200.476562 L 89.585938 200.476562 C 82.273438 200.476562 76.324219 194.527344 76.324219 187.21875 L 76.324219 94.976562 C 76.324219 87.667969 82.273438 81.71875 89.585938 81.71875 L 193.355469 81.71875 M 193.355469 77.683594 L 89.585938 77.683594 C 80.03125 77.683594 72.289062 85.425781 72.289062 94.976562 L 72.289062 187.21875 C 72.289062 196.769531 80.03125 204.511719 89.585938 204.511719 L 193.355469 204.511719 C 202.910156 204.511719 210.652344 196.769531 210.652344 187.21875 L 210.652344 94.976562 C 210.652344 85.425781 202.910156 77.683594 193.355469 77.683594 Z M 193.355469 77.683594 " fill-opacity="1" fill-rule="nonzero"/><path fill="#472b29" d="M 160.207031 100.742188 L 74.453125 100.742188 C 73.65625 100.742188 73.011719 100.097656 73.011719 99.300781 C 73.011719 98.503906 73.65625 97.859375 74.453125 97.859375 L 160.207031 97.859375 C 161.003906 97.859375 161.648438 98.503906 161.648438 99.300781 C 161.648438 100.097656 161.003906 100.742188 160.207031 100.742188 Z M 177.503906 100.742188 L 165.972656 100.742188 C 165.175781 100.742188 164.53125 100.097656 164.53125 99.300781 C 164.53125 98.503906 165.175781 97.859375 165.972656 97.859375 L 177.503906 97.859375 C 178.296875 97.859375 178.945312 98.503906 178.945312 99.300781 C 178.945312 100.097656 178.296875 100.742188 177.503906 100.742188 Z M 208.128906 100.742188 L 186.152344 100.742188 C 185.355469 100.742188 184.710938 100.097656 184.710938 99.300781 C 184.710938 98.503906 185.355469 97.859375 186.152344 97.859375 L 208.128906 97.859375 C 208.925781 97.859375 209.570312 98.503906 209.570312 99.300781 C 209.570312 100.097656 208.925781 100.742188 208.128906 100.742188 Z M 208.128906 187.21875 L 194.796875 187.21875 C 194.003906 187.21875 193.355469 186.574219 193.355469 185.777344 C 193.355469 184.980469 194.003906 184.335938 194.796875 184.335938 L 208.128906 184.335938 C 208.925781 184.335938 209.570312 184.980469 209.570312 185.777344 C 209.570312 186.574219 208.925781 187.21875 208.128906 187.21875 Z M 186.152344 187.21875 L 74.09375 187.21875 C 73.296875 187.21875 72.652344 186.574219 72.652344 185.777344 C 72.652344 184.980469 73.296875 184.335938 74.09375 184.335938 L 186.152344 184.335938 C 186.945312 184.335938 187.589844 184.980469 187.589844 185.777344 C 187.589844 186.574219 186.945312 187.21875 186.152344 187.21875 Z M 186.152344 187.21875 " fill-opacity="1" fill-rule="nonzero"/><path fill="#ee3e54" d="M 91.023438 87.214844 C 90.566406 87.214844 90.128906 87.300781 89.707031 87.476562 C 89.285156 87.652344 88.914062 87.898438 88.59375 88.222656 C 88.269531 88.542969 88.019531 88.917969 87.847656 89.335938 C 87.671875 89.757812 87.585938 90.199219 87.585938 90.652344 C 87.585938 91.109375 87.671875 91.546875 87.847656 91.96875 C 88.019531 92.390625 88.269531 92.761719 88.59375 93.085938 C 88.914062 93.40625 89.285156 93.65625 89.707031 93.832031 C 90.128906 94.003906 90.566406 94.09375 91.023438 94.09375 C 91.480469 94.09375 91.917969 94.003906 92.339844 93.832031 C 92.761719 93.65625 93.132812 93.40625 93.457031 93.085938 C 93.777344 92.761719 94.027344 92.390625 94.199219 91.96875 C 94.375 91.546875 94.460938 91.109375 94.460938 90.652344 C 94.460938 90.199219 94.375 89.757812 94.199219 89.335938 C 94.027344 88.917969 93.777344 88.542969 93.457031 88.222656 C 93.132812 87.898438 92.761719 87.652344 92.339844 87.476562 C 91.917969 87.300781 91.480469 87.214844 91.023438 87.214844 Z M 91.023438 87.214844 " fill-opacity="1" fill-rule="nonzero"/><path fill="#472b29" d="M 91.03125 88.492188 C 92.21875 88.492188 93.1875 89.460938 93.1875 90.652344 C 93.1875 91.847656 92.21875 92.816406 91.03125 92.816406 C 89.835938 92.816406 88.863281 91.847656 88.863281 90.652344 C 88.863281 89.460938 89.835938 88.492188 91.03125 88.492188 M 91.03125 86.328125 C 88.644531 86.328125 86.703125 88.269531 86.703125 90.652344 C 86.703125 93.039062 88.644531 94.976562 91.03125 94.976562 C 93.410156 94.976562 95.351562 93.039062 95.351562 90.652344 C 95.351562 88.269531 93.414062 86.328125 91.03125 86.328125 Z M 91.03125 86.328125 " fill-opacity="1" fill-rule="nonzero"/><path fill="#f1bc19" d="M 102.558594 87.214844 C 102.101562 87.214844 101.664062 87.300781 101.242188 87.476562 C 100.820312 87.652344 100.449219 87.898438 100.125 88.222656 C 99.804688 88.542969 99.554688 88.917969 99.378906 89.335938 C 99.207031 89.757812 99.117188 90.199219 99.117188 90.652344 C 99.117188 91.109375 99.207031 91.546875 99.378906 91.96875 C 99.554688 92.390625 99.804688 92.761719 100.125 93.085938 C 100.449219 93.40625 100.820312 93.65625 101.242188 93.832031 C 101.664062 94.003906 102.101562 94.09375 102.558594 94.09375 C 103.011719 94.09375 103.453125 94.003906 103.871094 93.832031 C 104.292969 93.65625 104.667969 93.40625 104.988281 93.085938 C 105.3125 92.761719 105.558594 92.390625 105.734375 91.96875 C 105.910156 91.546875 105.996094 91.109375 105.996094 90.652344 C 105.996094 90.199219 105.910156 89.757812 105.734375 89.335938 C 105.558594 88.917969 105.3125 88.542969 104.988281 88.222656 C 104.667969 87.898438 104.292969 87.652344 103.871094 87.476562 C 103.453125 87.300781 103.011719 87.214844 102.558594 87.214844 Z M 102.558594 87.214844 " fill-opacity="1" fill-rule="nonzero"/><path fill="#472b29" d="M 102.558594 88.492188 C 103.75 88.492188 104.71875 89.460938 104.71875 90.652344 C 104.71875 91.847656 103.75 92.816406 102.558594 92.816406 C 101.363281 92.816406 100.394531 91.847656 100.394531 90.652344 C 100.394531 89.460938 101.363281 88.492188 102.558594 88.492188 M 102.558594 86.328125 C 100.171875 86.328125 98.234375 88.269531 98.234375 90.652344 C 98.234375 93.039062 100.171875 94.976562 102.558594 94.976562 C 104.9375 94.976562 106.878906 93.039062 106.878906 90.652344 C 106.878906 88.269531 104.941406 86.328125 102.558594 86.328125 Z M 102.558594 86.328125 " fill-opacity="1" fill-rule="nonzero"/><path fill="#88ae45" d="M 114.089844 87.214844 C 113.632812 87.214844 113.195312 87.300781 112.773438 87.476562 C 112.351562 87.652344 111.980469 87.898438 111.660156 88.222656 C 111.335938 88.542969 111.085938 88.917969 110.914062 89.335938 C 110.738281 89.757812 110.652344 90.199219 110.652344 90.652344 C 110.652344 91.109375 110.738281 91.546875 110.914062 91.96875 C 111.085938 92.390625 111.335938 92.761719 111.660156 93.085938 C 111.980469 93.40625 112.351562 93.65625 112.773438 93.832031 C 113.195312 94.003906 113.632812 94.09375 114.089844 94.09375 C 114.546875 94.09375 114.984375 94.003906 115.40625 93.832031 C 115.828125 93.65625 116.199219 93.40625 116.523438 93.085938 C 116.84375 92.761719 117.09375 92.390625 117.265625 91.96875 C 117.441406 91.546875 117.527344 91.109375 117.527344 90.652344 C 117.527344 90.199219 117.441406 89.757812 117.265625 89.335938 C 117.09375 88.917969 116.84375 88.542969 116.523438 88.222656 C 116.199219 87.898438 115.828125 87.652344 115.40625 87.476562 C 114.984375 87.300781 114.546875 87.214844 114.089844 87.214844 Z M 114.089844 87.214844 " fill-opacity="1" fill-rule="nonzero"/><path fill="#472b29" d="M 114.089844 88.492188 C 115.28125 88.492188 116.25 89.460938 116.25 90.652344 C 116.25 91.847656 115.28125 92.816406 114.089844 92.816406 C 112.898438 92.816406 111.925781 91.847656 111.925781 90.652344 C 111.925781 89.460938 112.898438 88.492188 114.089844 88.492188 M 114.089844 86.328125 C 111.703125 86.328125 109.761719 88.269531 109.761719 90.652344 C 109.761719 93.039062 111.703125 94.976562 114.089844 94.976562 C 116.472656 94.976562 118.410156 93.039062 118.410156 90.652344 C 118.410156 88.269531 116.472656 86.328125 114.089844 86.328125 Z M 114.089844 86.328125 " fill-opacity="1" fill-rule="nonzero"/><path fill="#472b29" d="M 134.625 181.453125 C 134.027344 181.453125 133.542969 180.96875 133.542969 180.371094 L 133.542969 104.707031 C 133.542969 104.109375 134.027344 103.625 134.625 103.625 C 135.222656 103.625 135.707031 104.109375 135.707031 104.707031 L 135.707031 180.371094 C 135.707031 180.96875 135.222656 181.453125 134.625 181.453125 Z M 91.386719 181.453125 C 90.789062 181.453125 90.304688 180.96875 90.304688 180.371094 L 90.304688 104.707031 C 90.304688 104.109375 90.789062 103.625 91.386719 103.625 C 91.984375 103.625 92.46875 104.109375 92.46875 104.707031 L 92.46875 180.371094 C 92.46875 180.96875 91.984375 181.453125 91.386719 181.453125 Z M 91.386719 181.453125 " fill-opacity="1" fill-rule="nonzero"/><path fill="#fdfcef" d="M 85.621094 109.390625 L 82.019531 109.390625 C 81.421875 109.390625 80.9375 108.90625 80.9375 108.308594 C 80.9375 107.710938 81.421875 107.226562 82.019531 107.226562 L 85.621094 107.226562 C 86.21875 107.226562 86.703125 107.710938 86.703125 108.308594 C 86.703125 108.90625 86.21875 109.390625 85.621094 109.390625 Z M 85.621094 115.15625 L 82.019531 115.15625 C 81.421875 115.15625 80.9375 114.671875 80.9375 114.074219 C 80.9375 113.476562 81.421875 112.992188 82.019531 112.992188 L 85.621094 112.992188 C 86.21875 112.992188 86.703125 113.476562 86.703125 114.074219 C 86.703125 114.671875 86.21875 115.15625 85.621094 115.15625 Z M 85.621094 120.921875 L 82.019531 120.921875 C 81.421875 120.921875 80.9375 120.4375 80.9375 119.839844 C 80.9375 119.242188 81.421875 118.757812 82.019531 118.757812 L 85.621094 118.757812 C 86.21875 118.757812 86.703125 119.242188 86.703125 119.839844 C 86.703125 120.4375 86.21875 120.921875 85.621094 120.921875 Z M 85.621094 126.683594 L 82.019531 126.683594 C 81.421875 126.683594 80.9375 126.199219 80.9375 125.605469 C 80.9375 125.007812 81.421875 124.523438 82.019531 124.523438 L 85.621094 124.523438 C 86.21875 124.523438 86.703125 125.007812 86.703125 125.605469 C 86.703125 126.199219 86.21875 126.683594 85.621094 126.683594 Z M 85.621094 132.449219 L 82.019531 132.449219 C 81.421875 132.449219 80.9375 131.964844 80.9375 131.371094 C 80.9375 130.773438 81.421875 130.289062 82.019531 130.289062 L 85.621094 130.289062 C 86.21875 130.289062 86.703125 130.773438 86.703125 131.371094 C 86.703125 131.964844 86.21875 132.449219 85.621094 132.449219 Z M 85.621094 138.214844 L 82.019531 138.214844 C 81.421875 138.214844 80.9375 137.730469 80.9375 137.132812 C 80.9375 136.539062 81.421875 136.054688 82.019531 136.054688 L 85.621094 136.054688 C 86.21875 136.054688 86.703125 136.539062 86.703125 137.132812 C 86.703125 137.730469 86.21875 138.214844 85.621094 138.214844 Z M 85.621094 143.980469 L 82.019531 143.980469 C 81.421875 143.980469 80.9375 143.496094 80.9375 142.898438 C 80.9375 142.304688 81.421875 141.820312 82.019531 141.820312 L 85.621094 141.820312 C 86.21875 141.820312 86.703125 142.304688 86.703125 142.898438 C 86.703125 143.496094 86.21875 143.980469 85.621094 143.980469 Z M 85.621094 149.746094 L 82.019531 149.746094 C 81.421875 149.746094 80.9375 149.261719 80.9375 148.664062 C 80.9375 148.066406 81.421875 147.582031 82.019531 147.582031 L 85.621094 147.582031 C 86.21875 147.582031 86.703125 148.066406 86.703125 148.664062 C 86.703125 149.261719 86.21875 149.746094 85.621094 149.746094 Z M 85.621094 155.511719 L 82.019531 155.511719 C 81.421875 155.511719 80.9375 155.027344 80.9375 154.429688 C 80.9375 153.832031 81.421875 153.347656 82.019531 153.347656 L 85.621094 153.347656 C 86.21875 153.347656 86.703125 153.832031 86.703125 154.429688 C 86.703125 155.027344 86.21875 155.511719 85.621094 155.511719 Z M 85.621094 161.277344 L 82.019531 161.277344 C 81.421875 161.277344 80.9375 160.792969 80.9375 160.195312 C 80.9375 159.597656 81.421875 159.113281 82.019531 159.113281 L 85.621094 159.113281 C 86.21875 159.113281 86.703125 159.597656 86.703125 160.195312 C 86.703125 160.792969 86.21875 161.277344 85.621094 161.277344 Z M 85.621094 167.039062 L 82.019531 167.039062 C 81.421875 167.039062 80.9375 166.554688 80.9375 165.960938 C 80.9375 165.363281 81.421875 164.878906 82.019531 164.878906 L 85.621094 164.878906 C 86.21875 164.878906 86.703125 165.363281 86.703125 165.960938 C 86.703125 166.554688 86.21875 167.039062 85.621094 167.039062 Z M 85.621094 172.804688 L 82.019531 172.804688 C 81.421875 172.804688 80.9375 172.320312 80.9375 171.726562 C 80.9375 171.128906 81.421875 170.644531 82.019531 170.644531 L 85.621094 170.644531 C 86.21875 170.644531 86.703125 171.128906 86.703125 171.726562 C 86.703125 172.320312 86.21875 172.804688 85.621094 172.804688 Z M 85.621094 178.570312 L 82.019531 178.570312 C 81.421875 178.570312 80.9375 178.085938 80.9375 177.488281 C 80.9375 176.894531 81.421875 176.410156 82.019531 176.410156 L 85.621094 176.410156 C 86.21875 176.410156 86.703125 176.894531 86.703125 177.488281 C 86.703125 178.085938 86.21875 178.570312 85.621094 178.570312 Z M 85.621094 178.570312 " fill-opacity="1" fill-rule="nonzero"/><path fill="#fdfcef" d="M 110.84375 126.683594 C 110.722656 126.683594 110.597656 126.664062 110.476562 126.621094 C 109.914062 126.421875 109.625 125.800781 109.828125 125.238281 L 116.3125 107.222656 C 116.515625 106.660156 117.128906 106.363281 117.695312 106.570312 C 118.257812 106.773438 118.550781 107.390625 118.347656 107.953125 L 111.863281 125.96875 C 111.703125 126.410156 111.289062 126.683594 110.84375 126.683594 Z M 102.917969 123.800781 C 102.589844 123.800781 102.273438 123.660156 102.058594 123.382812 L 98.453125 118.699219 C 98.15625 118.308594 98.15625 117.769531 98.453125 117.378906 L 102.058594 112.695312 C 102.421875 112.21875 103.101562 112.132812 103.574219 112.496094 C 104.046875 112.859375 104.136719 113.539062 103.773438 114.011719 L 100.675781 118.039062 L 103.773438 122.0625 C 104.136719 122.535156 104.046875 123.210938 103.574219 123.578125 C 103.382812 123.730469 103.148438 123.800781 102.917969 123.800781 Z M 125.257812 123.800781 C 125.027344 123.800781 124.796875 123.730469 124.601562 123.578125 C 124.125 123.214844 124.039062 122.535156 124.402344 122.0625 L 127.496094 118.039062 L 124.402344 114.011719 C 124.039062 113.539062 124.125 112.863281 124.601562 112.496094 C 125.074219 112.132812 125.75 112.21875 126.117188 112.695312 L 129.71875 117.378906 C 130.019531 117.769531 130.019531 118.308594 129.71875 118.699219 L 126.117188 123.382812 C 125.898438 123.660156 125.578125 123.800781 125.257812 123.800781 Z M 125.257812 123.800781 " fill-opacity="1" fill-rule="nonzero"/><path fill="#c5def0" d="M 145.433594 116.234375 L 177.863281 116.234375 L 177.863281 137.132812 L 145.433594 137.132812 Z M 145.433594 116.234375 " fill-opacity="1" fill-rule="nonzero"/><path fill="#472b29" d="M 177.863281 138.214844 L 145.433594 138.214844 C 144.839844 138.214844 144.355469 137.730469 144.355469 137.132812 L 144.355469 116.234375 C 144.355469 115.640625 144.839844 115.15625 145.433594 115.15625 L 177.863281 115.15625 C 178.460938 115.15625 178.945312 115.640625 178.945312 116.234375 L 178.945312 137.132812 C 178.945312 137.730469 178.460938 138.214844 177.863281 138.214844 Z M 146.515625 136.054688 L 176.78125 136.054688 L 176.78125 117.316406 L 146.515625 117.316406 Z M 195.519531 116.597656 L 185.429688 116.597656 C 185.03125 116.597656 184.710938 116.273438 184.710938 115.875 C 184.710938 115.476562 185.03125 115.15625 185.429688 115.15625 L 195.519531 115.15625 C 195.917969 115.15625 196.238281 115.476562 196.238281 115.875 C 196.238281 116.273438 195.917969 116.597656 195.519531 116.597656 Z M 195.519531 123.800781 L 185.429688 123.800781 C 185.03125 123.800781 184.710938 123.480469 184.710938 123.082031 C 184.710938 122.683594 185.03125 122.363281 185.429688 122.363281 L 195.519531 122.363281 C 195.917969 122.363281 196.238281 122.683594 196.238281 123.082031 C 196.238281 123.480469 195.917969 123.800781 195.519531 123.800781 Z M 195.519531 131.007812 L 185.429688 131.007812 C 185.03125 131.007812 184.710938 130.6875 184.710938 130.289062 C 184.710938 129.890625 185.03125 129.566406 185.429688 129.566406 L 195.519531 129.566406 C 195.917969 129.566406 196.238281 129.890625 196.238281 130.289062 C 196.238281 130.6875 195.917969 131.007812 195.519531 131.007812 Z M 195.519531 138.214844 L 185.429688 138.214844 C 185.03125 138.214844 184.710938 137.890625 184.710938 137.496094 C 184.710938 137.097656 185.03125 136.773438 185.429688 136.773438 L 195.519531 136.773438 C 195.917969 136.773438 196.238281 137.097656 196.238281 137.496094 C 196.238281 137.890625 195.917969 138.214844 195.519531 138.214844 Z M 195.519531 138.214844 " fill-opacity="1" fill-rule="nonzero"/><path fill="#472b29" d="M 145.410156 136.171875 L 177.117188 115.988281 L 177.890625 117.207031 L 146.1875 137.386719 Z M 145.410156 136.171875 " fill-opacity="1" fill-rule="nonzero"/><path fill="#472b29" d="M 145.410156 117.195312 L 146.183594 115.980469 L 162.035156 126.070312 L 161.261719 127.285156 Z M 145.410156 117.195312 " fill-opacity="1" fill-rule="nonzero"/><path fill="#472b29" d="M 177.503906 137.496094 C 177.371094 137.496094 177.234375 137.457031 177.117188 137.382812 L 166.925781 130.898438 C 166.589844 130.683594 166.488281 130.238281 166.703125 129.902344 C 166.917969 129.566406 167.367188 129.472656 167.695312 129.679688 L 177.890625 136.164062 C 178.222656 136.378906 178.324219 136.824219 178.109375 137.160156 C 177.972656 137.375 177.742188 137.496094 177.503906 137.496094 Z M 177.503906 137.496094 " fill-opacity="1" fill-rule="nonzero"/><path fill="#c5def0" d="M 162.730469 150.828125 L 195.160156 150.828125 L 195.160156 171.726562 L 162.730469 171.726562 Z M 162.730469 150.828125 " fill-opacity="1" fill-rule="nonzero"/><path fill="#472b29" d="M 195.160156 172.804688 L 162.730469 172.804688 C 162.132812 172.804688 161.648438 172.320312 161.648438 171.726562 L 161.648438 150.828125 C 161.648438 150.230469 162.132812 149.746094 162.730469 149.746094 L 195.160156 149.746094 C 195.753906 149.746094 196.238281 150.230469 196.238281 150.828125 L 196.238281 171.726562 C 196.238281 172.320312 195.753906 172.804688 195.160156 172.804688 Z M 163.8125 170.644531 L 194.078125 170.644531 L 194.078125 151.90625 L 163.8125 151.90625 Z M 163.8125 170.644531 " fill-opacity="1" fill-rule="nonzero"/><path fill="#472b29" d="M 162.707031 170.761719 L 194.414062 150.582031 L 195.1875 151.796875 L 163.480469 171.976562 Z M 162.707031 170.761719 " fill-opacity="1" fill-rule="nonzero"/><path fill="#472b29" d="M 162.707031 151.78125 L 163.480469 150.566406 L 179.332031 160.65625 L 178.558594 161.871094 Z M 162.707031 151.78125 " fill-opacity="1" fill-rule="nonzero"/><path fill="#472b29" d="M 194.796875 172.085938 C 194.664062 172.085938 194.53125 172.046875 194.410156 171.972656 L 184.21875 165.488281 C 183.882812 165.273438 183.785156 164.828125 183.996094 164.492188 C 184.214844 164.15625 184.660156 164.058594 184.992188 164.269531 L 195.183594 170.757812 C 195.519531 170.96875 195.621094 171.417969 195.40625 171.75 C 195.269531 171.96875 195.039062 172.085938 194.796875 172.085938 Z M 155.164062 151.1875 L 145.074219 151.1875 C 144.675781 151.1875 144.355469 150.863281 144.355469 150.464844 C 144.355469 150.066406 144.675781 149.746094 145.074219 149.746094 L 155.164062 149.746094 C 155.5625 149.746094 155.882812 150.066406 155.882812 150.464844 C 155.882812 150.863281 155.5625 151.1875 155.164062 151.1875 Z M 155.164062 158.394531 L 145.074219 158.394531 C 144.675781 158.394531 144.355469 158.070312 144.355469 157.671875 C 144.355469 157.273438 144.675781 156.953125 145.074219 156.953125 L 155.164062 156.953125 C 155.5625 156.953125 155.882812 157.273438 155.882812 157.671875 C 155.882812 158.070312 155.5625 158.394531 155.164062 158.394531 Z M 155.164062 165.597656 L 145.074219 165.597656 C 144.675781 165.597656 144.355469 165.277344 144.355469 164.878906 C 144.355469 164.480469 144.675781 164.15625 145.074219 164.15625 L 155.164062 164.15625 C 155.5625 164.15625 155.882812 164.480469 155.882812 164.878906 C 155.882812 165.277344 155.5625 165.597656 155.164062 165.597656 Z M 155.164062 172.804688 L 145.074219 172.804688 C 144.675781 172.804688 144.355469 172.484375 144.355469 172.085938 C 144.355469 171.6875 144.675781 171.363281 145.074219 171.363281 L 155.164062 171.363281 C 155.5625 171.363281 155.882812 171.6875 155.882812 172.085938 C 155.882812 172.484375 155.5625 172.804688 155.164062 172.804688 Z M 155.164062 172.804688 " fill-opacity="1" fill-rule="nonzero"/></svg>