<svg xmlns="http://www.w3.org/2000/svg" xmlns:xlink="http://www.w3.org/1999/xlink" width="377" zoomAndPan="magnify" viewBox="0 0 282.96 283.499996" height="377" preserveAspectRatio="xMidYMid meet" version="1.0"><defs><clipPath id="0bd6a8fa94"><path d="M 225 28.246094 L 249 28.246094 L 249 52 L 225 52 Z M 225 28.246094 " clip-rule="nonzero"/></clipPath><clipPath id="02fa01a631"><path d="M 63 241 L 76 241 L 76 253.949219 L 63 253.949219 Z M 63 241 " clip-rule="nonzero"/></clipPath></defs><path fill="#f1bc19" d="M 219.300781 31.5625 C 218.917969 31.5625 218.550781 31.632812 218.195312 31.78125 C 217.84375 31.925781 217.53125 32.136719 217.261719 32.40625 C 216.992188 32.675781 216.78125 32.988281 216.636719 33.339844 C 216.488281 33.695312 216.417969 34.0625 216.417969 34.445312 C 216.417969 34.828125 216.488281 35.195312 216.636719 35.546875 C 216.78125 35.898438 216.992188 36.210938 217.261719 36.480469 C 217.53125 36.753906 217.84375 36.960938 218.195312 37.105469 C 218.550781 37.253906 218.917969 37.328125 219.300781 37.328125 C 219.683594 37.328125 220.050781 37.253906 220.402344 37.105469 C 220.753906 36.960938 221.066406 36.753906 221.335938 36.480469 C 221.609375 36.210938 221.816406 35.898438 221.960938 35.546875 C 222.109375 35.195312 222.183594 34.828125 222.183594 34.445312 C 222.183594 34.0625 222.109375 33.695312 221.960938 33.339844 C 221.816406 32.988281 221.609375 32.675781 221.335938 32.40625 C 221.066406 32.136719 220.753906 31.925781 220.402344 31.78125 C 220.050781 31.632812 219.683594 31.5625 219.300781 31.5625 Z M 219.300781 31.5625 " fill-opacity="1" fill-rule="nonzero"/><path fill="#e4e4f9" d="M 141.472656 34.445312 C 139.726562 34.445312 137.980469 34.488281 136.238281 34.574219 C 134.496094 34.65625 132.753906 34.785156 131.015625 34.957031 C 129.28125 35.128906 127.546875 35.34375 125.820312 35.597656 C 124.09375 35.855469 122.375 36.152344 120.664062 36.492188 C 118.953125 36.832031 117.25 37.214844 115.554688 37.640625 C 113.863281 38.066406 112.179688 38.53125 110.511719 39.035156 C 108.839844 39.542969 107.183594 40.089844 105.539062 40.679688 C 103.898438 41.265625 102.269531 41.894531 100.65625 42.5625 C 99.042969 43.230469 97.449219 43.9375 95.871094 44.683594 C 94.292969 45.429688 92.734375 46.214844 91.195312 47.039062 C 89.65625 47.859375 88.136719 48.71875 86.640625 49.617188 C 85.144531 50.515625 83.667969 51.449219 82.21875 52.417969 C 80.765625 53.386719 79.339844 54.394531 77.9375 55.433594 C 76.535156 56.472656 75.160156 57.546875 73.8125 58.652344 C 72.460938 59.761719 71.140625 60.902344 69.847656 62.074219 C 68.554688 63.246094 67.289062 64.449219 66.054688 65.683594 C 64.820312 66.917969 63.617188 68.179688 62.445312 69.472656 C 61.273438 70.765625 60.132812 72.089844 59.027344 73.4375 C 57.917969 74.785156 56.847656 76.164062 55.804688 77.5625 C 54.765625 78.964844 53.761719 80.394531 52.792969 81.84375 C 51.820312 83.296875 50.886719 84.769531 49.992188 86.265625 C 49.09375 87.765625 48.234375 89.28125 47.410156 90.820312 C 46.589844 92.359375 45.804688 93.917969 45.058594 95.496094 C 44.3125 97.074219 43.605469 98.671875 42.9375 100.28125 C 42.269531 101.894531 41.640625 103.523438 41.050781 105.167969 C 40.464844 106.8125 39.917969 108.46875 39.410156 110.136719 C 38.902344 111.808594 38.4375 113.488281 38.011719 115.183594 C 37.589844 116.875 37.207031 118.578125 36.867188 120.289062 C 36.527344 122.003906 36.226562 123.722656 35.972656 125.449219 C 35.714844 127.175781 35.503906 128.90625 35.332031 130.644531 C 35.160156 132.382812 35.03125 134.121094 34.945312 135.863281 C 34.859375 137.609375 34.816406 139.351562 34.816406 141.097656 C 34.816406 142.84375 34.859375 144.585938 34.945312 146.332031 C 35.03125 148.074219 35.160156 149.816406 35.332031 151.550781 C 35.503906 153.289062 35.714844 155.019531 35.972656 156.746094 C 36.226562 158.472656 36.527344 160.191406 36.867188 161.90625 C 37.207031 163.617188 37.589844 165.320312 38.011719 167.011719 C 38.4375 168.707031 38.902344 170.386719 39.410156 172.058594 C 39.917969 173.726562 40.464844 175.386719 41.050781 177.027344 C 41.640625 178.671875 42.269531 180.300781 42.9375 181.914062 C 43.605469 183.523438 44.3125 185.121094 45.058594 186.699219 C 45.804688 188.277344 46.589844 189.835938 47.410156 191.375 C 48.234375 192.914062 49.09375 194.433594 49.992188 195.929688 C 50.886719 197.425781 51.820312 198.898438 52.792969 200.351562 C 53.761719 201.804688 54.765625 203.230469 55.804688 204.632812 C 56.847656 206.035156 57.917969 207.410156 59.027344 208.757812 C 60.132812 210.109375 61.273438 211.429688 62.445312 212.722656 C 63.617188 214.015625 64.820312 215.277344 66.054688 216.511719 C 67.289062 217.746094 68.554688 218.949219 69.847656 220.125 C 71.140625 221.296875 72.460938 222.433594 73.8125 223.542969 C 75.160156 224.648438 76.535156 225.722656 77.9375 226.761719 C 79.339844 227.800781 80.765625 228.808594 82.21875 229.777344 C 83.667969 230.746094 85.144531 231.679688 86.640625 232.578125 C 88.136719 233.476562 89.65625 234.335938 91.195312 235.15625 C 92.734375 235.980469 94.292969 236.765625 95.871094 237.511719 C 97.449219 238.257812 99.042969 238.964844 100.65625 239.632812 C 102.269531 240.300781 103.898438 240.929688 105.539062 241.515625 C 107.183594 242.105469 108.839844 242.652344 110.511719 243.160156 C 112.179688 243.664062 113.863281 244.132812 115.554688 244.554688 C 117.25 244.980469 118.953125 245.363281 120.664062 245.703125 C 122.375 246.042969 124.09375 246.339844 125.820312 246.597656 C 127.546875 246.851562 129.28125 247.066406 131.015625 247.238281 C 132.753906 247.410156 134.496094 247.539062 136.238281 247.625 C 137.980469 247.707031 139.726562 247.75 141.472656 247.75 C 143.214844 247.75 144.960938 247.707031 146.703125 247.625 C 148.449219 247.539062 150.1875 247.410156 151.925781 247.238281 C 153.660156 247.066406 155.394531 246.851562 157.121094 246.597656 C 158.847656 246.339844 160.566406 246.042969 162.277344 245.703125 C 163.988281 245.363281 165.691406 244.980469 167.386719 244.554688 C 169.078125 244.132812 170.761719 243.664062 172.429688 243.160156 C 174.101562 242.652344 175.757812 242.105469 177.402344 241.515625 C 179.046875 240.929688 180.671875 240.300781 182.285156 239.632812 C 183.898438 238.964844 185.492188 238.257812 187.070312 237.511719 C 188.648438 236.765625 190.207031 235.980469 191.746094 235.15625 C 193.285156 234.335938 194.804688 233.476562 196.300781 232.578125 C 197.800781 231.679688 199.273438 230.746094 200.726562 229.777344 C 202.175781 228.808594 203.601562 227.800781 205.003906 226.761719 C 206.40625 225.722656 207.78125 224.648438 209.132812 223.542969 C 210.480469 222.433594 211.800781 221.296875 213.09375 220.125 C 214.386719 218.949219 215.652344 217.746094 216.886719 216.511719 C 218.121094 215.277344 219.324219 214.015625 220.496094 212.722656 C 221.667969 211.429688 222.808594 210.109375 223.914062 208.757812 C 225.023438 207.410156 226.097656 206.035156 227.136719 204.632812 C 228.175781 203.230469 229.179688 201.804688 230.152344 200.351562 C 231.121094 198.898438 232.054688 197.425781 232.949219 195.929688 C 233.847656 194.433594 234.707031 192.914062 235.53125 191.375 C 236.355469 189.835938 237.136719 188.277344 237.886719 186.699219 C 238.632812 185.121094 239.339844 183.523438 240.007812 181.914062 C 240.675781 180.300781 241.300781 178.671875 241.890625 177.027344 C 242.476562 175.386719 243.027344 173.726562 243.53125 172.058594 C 244.039062 170.386719 244.503906 168.707031 244.929688 167.011719 C 245.351562 165.320312 245.734375 163.617188 246.074219 161.90625 C 246.417969 160.191406 246.714844 158.472656 246.96875 156.746094 C 247.226562 155.019531 247.441406 153.289062 247.609375 151.550781 C 247.78125 149.816406 247.910156 148.074219 247.996094 146.332031 C 248.082031 144.585938 248.125 142.84375 248.125 141.097656 C 248.125 139.351562 248.082031 137.609375 247.996094 135.863281 C 247.910156 134.121094 247.78125 132.382812 247.609375 130.644531 C 247.441406 128.90625 247.226562 127.175781 246.96875 125.449219 C 246.714844 123.722656 246.417969 122.003906 246.074219 120.289062 C 245.734375 118.578125 245.351562 116.875 244.929688 115.183594 C 244.503906 113.488281 244.039062 111.808594 243.53125 110.136719 C 243.027344 108.46875 242.476562 106.8125 241.890625 105.167969 C 241.300781 103.523438 240.675781 101.894531 240.007812 100.28125 C 239.339844 98.671875 238.632812 97.074219 237.886719 95.496094 C 237.136719 93.917969 236.355469 92.359375 235.53125 90.820312 C 234.707031 89.28125 233.847656 87.765625 232.949219 86.265625 C 232.054688 84.769531 231.121094 83.296875 230.152344 81.84375 C 229.179688 80.394531 228.175781 78.964844 227.136719 77.5625 C 226.097656 76.164062 225.023438 74.785156 223.914062 73.4375 C 222.808594 72.089844 221.667969 70.765625 220.496094 69.472656 C 219.324219 68.179688 218.121094 66.917969 216.886719 65.683594 C 215.652344 64.449219 214.386719 63.246094 213.09375 62.074219 C 211.800781 60.902344 210.480469 59.761719 209.132812 58.652344 C 207.78125 57.546875 206.40625 56.472656 205.003906 55.433594 C 203.601562 54.394531 202.175781 53.386719 200.726562 52.417969 C 199.273438 51.449219 197.800781 50.515625 196.300781 49.617188 C 194.804688 48.71875 193.285156 47.859375 191.746094 47.039062 C 190.207031 46.214844 188.648438 45.429688 187.070312 44.683594 C 185.492188 43.9375 183.898438 43.230469 182.285156 42.5625 C 180.671875 41.894531 179.046875 41.265625 177.402344 40.679688 C 175.757812 40.089844 174.101562 39.542969 172.429688 39.035156 C 170.761719 38.53125 169.078125 38.066406 167.386719 37.640625 C 165.691406 37.214844 163.988281 36.832031 162.277344 36.492188 C 160.566406 36.152344 158.847656 35.855469 157.121094 35.597656 C 155.394531 35.34375 153.660156 35.128906 151.925781 34.957031 C 150.1875 34.785156 148.449219 34.65625 146.703125 34.574219 C 144.960938 34.488281 143.214844 34.445312 141.472656 34.445312 Z M 141.472656 34.445312 " fill-opacity="1" fill-rule="nonzero"/><g clip-path="url(#0bd6a8fa94)"><path fill="#f1bc19" d="M 236.59375 28.679688 C 235.835938 28.679688 235.085938 28.753906 234.34375 28.902344 C 233.601562 29.046875 232.882812 29.265625 232.183594 29.558594 C 231.484375 29.847656 230.820312 30.203125 230.1875 30.621094 C 229.558594 31.042969 228.976562 31.519531 228.441406 32.054688 C 227.90625 32.589844 227.429688 33.175781 227.007812 33.804688 C 226.585938 34.433594 226.230469 35.097656 225.941406 35.796875 C 225.652344 36.496094 225.433594 37.21875 225.285156 37.960938 C 225.136719 38.703125 225.066406 39.453125 225.066406 40.210938 C 225.066406 40.964844 225.136719 41.714844 225.285156 42.457031 C 225.433594 43.199219 225.652344 43.921875 225.941406 44.621094 C 226.230469 45.320312 226.585938 45.984375 227.007812 46.613281 C 227.429688 47.246094 227.90625 47.828125 228.441406 48.363281 C 228.976562 48.898438 229.558594 49.375 230.1875 49.796875 C 230.820312 50.214844 231.484375 50.570312 232.183594 50.863281 C 232.882812 51.152344 233.601562 51.371094 234.34375 51.519531 C 235.085938 51.664062 235.835938 51.738281 236.59375 51.738281 C 237.351562 51.738281 238.101562 51.664062 238.84375 51.519531 C 239.585938 51.371094 240.308594 51.152344 241.007812 50.863281 C 241.707031 50.570312 242.371094 50.214844 243 49.796875 C 243.628906 49.375 244.210938 48.898438 244.746094 48.363281 C 245.28125 47.828125 245.761719 47.246094 246.183594 46.613281 C 246.601562 45.984375 246.957031 45.320312 247.246094 44.621094 C 247.535156 43.921875 247.753906 43.199219 247.902344 42.457031 C 248.050781 41.714844 248.125 40.964844 248.125 40.210938 C 248.125 39.453125 248.050781 38.703125 247.902344 37.960938 C 247.753906 37.21875 247.535156 36.496094 247.246094 35.796875 C 246.957031 35.097656 246.601562 34.433594 246.183594 33.804688 C 245.761719 33.175781 245.28125 32.589844 244.746094 32.054688 C 244.210938 31.519531 243.628906 31.042969 243 30.621094 C 242.371094 30.203125 241.707031 29.847656 241.007812 29.558594 C 240.308594 29.265625 239.585938 29.046875 238.84375 28.902344 C 238.101562 28.753906 237.351562 28.679688 236.59375 28.679688 Z M 236.59375 28.679688 " fill-opacity="1" fill-rule="nonzero"/></g><path fill="#8889b9" d="M 248.125 60.386719 C 247.746094 60.386719 247.371094 60.421875 247 60.496094 C 246.628906 60.570312 246.269531 60.679688 245.917969 60.824219 C 245.570312 60.96875 245.238281 61.148438 244.921875 61.359375 C 244.605469 61.570312 244.316406 61.808594 244.046875 62.074219 C 243.78125 62.34375 243.542969 62.632812 243.332031 62.949219 C 243.121094 63.265625 242.945312 63.597656 242.796875 63.945312 C 242.652344 64.296875 242.542969 64.65625 242.46875 65.027344 C 242.398438 65.398438 242.359375 65.773438 242.359375 66.152344 C 242.359375 66.53125 242.398438 66.90625 242.46875 67.277344 C 242.542969 67.648438 242.652344 68.007812 242.796875 68.359375 C 242.945312 68.707031 243.121094 69.039062 243.332031 69.355469 C 243.542969 69.667969 243.78125 69.960938 244.046875 70.226562 C 244.316406 70.496094 244.605469 70.734375 244.921875 70.945312 C 245.238281 71.15625 245.570312 71.332031 245.917969 71.476562 C 246.269531 71.621094 246.628906 71.730469 247 71.804688 C 247.371094 71.878906 247.746094 71.917969 248.125 71.917969 C 248.503906 71.917969 248.878906 71.878906 249.25 71.804688 C 249.621094 71.730469 249.980469 71.621094 250.332031 71.476562 C 250.679688 71.332031 251.011719 71.15625 251.328125 70.945312 C 251.640625 70.734375 251.933594 70.496094 252.203125 70.226562 C 252.46875 69.960938 252.707031 69.667969 252.917969 69.355469 C 253.128906 69.039062 253.304688 68.707031 253.449219 68.359375 C 253.597656 68.007812 253.707031 67.648438 253.777344 67.277344 C 253.851562 66.90625 253.890625 66.53125 253.890625 66.152344 C 253.890625 65.773438 253.851562 65.398438 253.777344 65.027344 C 253.707031 64.65625 253.597656 64.296875 253.449219 63.945312 C 253.304688 63.597656 253.128906 63.265625 252.917969 62.949219 C 252.707031 62.632812 252.46875 62.34375 252.203125 62.074219 C 251.933594 61.808594 251.640625 61.570312 251.328125 61.359375 C 251.011719 61.148438 250.679688 60.96875 250.332031 60.824219 C 249.980469 60.679688 249.621094 60.570312 249.25 60.496094 C 248.878906 60.421875 248.503906 60.386719 248.125 60.386719 Z M 248.125 60.386719 " fill-opacity="1" fill-rule="nonzero"/><path fill="#fbcd59" d="M 230.828125 210.277344 C 230.449219 210.277344 230.078125 210.316406 229.703125 210.390625 C 229.332031 210.464844 228.972656 210.574219 228.625 210.71875 C 228.273438 210.863281 227.941406 211.039062 227.625 211.25 C 227.3125 211.460938 227.019531 211.699219 226.753906 211.96875 C 226.484375 212.234375 226.246094 212.527344 226.035156 212.839844 C 225.824219 213.15625 225.648438 213.488281 225.503906 213.835938 C 225.359375 214.1875 225.25 214.546875 225.175781 214.917969 C 225.101562 215.289062 225.066406 215.664062 225.066406 216.042969 C 225.066406 216.421875 225.101562 216.796875 225.175781 217.167969 C 225.25 217.539062 225.359375 217.898438 225.503906 218.25 C 225.648438 218.601562 225.824219 218.933594 226.035156 219.246094 C 226.246094 219.5625 226.484375 219.851562 226.753906 220.121094 C 227.019531 220.386719 227.3125 220.625 227.625 220.835938 C 227.941406 221.046875 228.273438 221.226562 228.625 221.371094 C 228.972656 221.515625 229.332031 221.625 229.703125 221.699219 C 230.078125 221.773438 230.449219 221.808594 230.828125 221.808594 C 231.207031 221.808594 231.582031 221.773438 231.953125 221.699219 C 232.324219 221.625 232.6875 221.515625 233.035156 221.371094 C 233.386719 221.226562 233.71875 221.046875 234.03125 220.835938 C 234.347656 220.625 234.636719 220.386719 234.90625 220.121094 C 235.175781 219.851562 235.414062 219.5625 235.625 219.246094 C 235.832031 218.933594 236.011719 218.601562 236.15625 218.25 C 236.300781 217.898438 236.410156 217.539062 236.484375 217.167969 C 236.558594 216.796875 236.59375 216.421875 236.59375 216.042969 C 236.59375 215.664062 236.558594 215.289062 236.484375 214.917969 C 236.410156 214.546875 236.300781 214.1875 236.15625 213.835938 C 236.011719 213.488281 235.832031 213.15625 235.625 212.839844 C 235.414062 212.527344 235.175781 212.234375 234.90625 211.96875 C 234.636719 211.699219 234.347656 211.460938 234.03125 211.25 C 233.71875 211.039062 233.386719 210.863281 233.035156 210.71875 C 232.6875 210.574219 232.324219 210.464844 231.953125 210.390625 C 231.582031 210.316406 231.207031 210.277344 230.828125 210.277344 Z M 40.582031 167.039062 C 39.824219 167.039062 39.074219 167.113281 38.332031 167.261719 C 37.589844 167.410156 36.871094 167.628906 36.171875 167.917969 C 35.46875 168.207031 34.804688 168.5625 34.175781 168.984375 C 33.546875 169.40625 32.964844 169.882812 32.429688 170.417969 C 31.894531 170.953125 31.417969 171.535156 30.996094 172.164062 C 30.574219 172.792969 30.21875 173.457031 29.929688 174.160156 C 29.640625 174.859375 29.421875 175.578125 29.273438 176.320312 C 29.125 177.0625 29.050781 177.8125 29.050781 178.570312 C 29.050781 179.328125 29.125 180.078125 29.273438 180.820312 C 29.421875 181.5625 29.640625 182.285156 29.929688 182.984375 C 30.21875 183.683594 30.574219 184.347656 30.996094 184.976562 C 31.417969 185.605469 31.894531 186.1875 32.429688 186.722656 C 32.964844 187.257812 33.546875 187.738281 34.175781 188.15625 C 34.804688 188.578125 35.46875 188.933594 36.171875 189.222656 C 36.871094 189.511719 37.589844 189.730469 38.332031 189.878906 C 39.074219 190.027344 39.824219 190.101562 40.582031 190.101562 C 41.339844 190.101562 42.089844 190.027344 42.832031 189.878906 C 43.574219 189.730469 44.296875 189.511719 44.996094 189.222656 C 45.695312 188.933594 46.359375 188.578125 46.988281 188.15625 C 47.617188 187.738281 48.199219 187.257812 48.734375 186.722656 C 49.269531 186.1875 49.75 185.605469 50.167969 184.976562 C 50.589844 184.347656 50.945312 183.683594 51.234375 182.984375 C 51.523438 182.285156 51.742188 181.5625 51.890625 180.820312 C 52.039062 180.078125 52.113281 179.328125 52.113281 178.570312 C 52.113281 177.8125 52.039062 177.0625 51.890625 176.320312 C 51.742188 175.578125 51.523438 174.859375 51.234375 174.160156 C 50.945312 173.457031 50.589844 172.792969 50.167969 172.164062 C 49.75 171.535156 49.269531 170.953125 48.734375 170.417969 C 48.199219 169.882812 47.617188 169.40625 46.988281 168.984375 C 46.359375 168.5625 45.695312 168.207031 44.996094 167.917969 C 44.296875 167.628906 43.574219 167.410156 42.832031 167.261719 C 42.089844 167.113281 41.339844 167.039062 40.582031 167.039062 Z M 40.582031 167.039062 " fill-opacity="1" fill-rule="nonzero"/><g clip-path="url(#02fa01a631)"><path fill="#8889b9" d="M 69.40625 241.988281 C 69.027344 241.988281 68.65625 242.023438 68.28125 242.097656 C 67.910156 242.171875 67.550781 242.28125 67.203125 242.425781 C 66.851562 242.570312 66.519531 242.746094 66.203125 242.957031 C 65.890625 243.167969 65.597656 243.40625 65.332031 243.675781 C 65.0625 243.941406 64.824219 244.234375 64.613281 244.546875 C 64.402344 244.863281 64.226562 245.195312 64.082031 245.546875 C 63.9375 245.894531 63.828125 246.253906 63.753906 246.625 C 63.679688 247 63.644531 247.375 63.644531 247.75 C 63.644531 248.128906 63.679688 248.503906 63.753906 248.875 C 63.828125 249.246094 63.9375 249.609375 64.082031 249.957031 C 64.226562 250.308594 64.402344 250.640625 64.613281 250.953125 C 64.824219 251.269531 65.0625 251.558594 65.332031 251.828125 C 65.597656 252.097656 65.890625 252.335938 66.203125 252.546875 C 66.519531 252.753906 66.851562 252.933594 67.203125 253.078125 C 67.550781 253.222656 67.910156 253.332031 68.28125 253.40625 C 68.65625 253.480469 69.027344 253.515625 69.40625 253.515625 C 69.785156 253.515625 70.160156 253.480469 70.53125 253.40625 C 70.902344 253.332031 71.265625 253.222656 71.613281 253.078125 C 71.964844 252.933594 72.296875 252.753906 72.609375 252.546875 C 72.925781 252.335938 73.214844 252.097656 73.484375 251.828125 C 73.75 251.558594 73.992188 251.269531 74.203125 250.953125 C 74.410156 250.640625 74.589844 250.308594 74.734375 249.957031 C 74.878906 249.609375 74.988281 249.246094 75.0625 248.875 C 75.136719 248.503906 75.171875 248.128906 75.171875 247.75 C 75.171875 247.375 75.136719 247 75.0625 246.625 C 74.988281 246.253906 74.878906 245.894531 74.734375 245.546875 C 74.589844 245.195312 74.410156 244.863281 74.203125 244.546875 C 73.992188 244.234375 73.75 243.941406 73.484375 243.675781 C 73.214844 243.40625 72.925781 243.167969 72.609375 242.957031 C 72.296875 242.746094 71.964844 242.570312 71.613281 242.425781 C 71.265625 242.28125 70.902344 242.171875 70.53125 242.097656 C 70.160156 242.023438 69.785156 241.988281 69.40625 241.988281 Z M 69.40625 241.988281 " fill-opacity="1" fill-rule="nonzero"/></g><path fill="#ffffff" d="M 50.671875 138.214844 C 50.199219 138.214844 49.730469 138.261719 49.265625 138.355469 C 48.800781 138.445312 48.351562 138.582031 47.914062 138.765625 C 47.476562 138.945312 47.0625 139.167969 46.667969 139.429688 C 46.273438 139.691406 45.910156 139.992188 45.574219 140.324219 C 45.242188 140.660156 44.941406 141.023438 44.679688 141.417969 C 44.417969 141.8125 44.195312 142.226562 44.011719 142.664062 C 43.832031 143.101562 43.695312 143.550781 43.601562 144.015625 C 43.511719 144.480469 43.464844 144.949219 43.464844 145.421875 C 43.464844 145.894531 43.511719 146.363281 43.601562 146.828125 C 43.695312 147.292969 43.832031 147.742188 44.011719 148.179688 C 44.195312 148.617188 44.417969 149.03125 44.679688 149.425781 C 44.941406 149.820312 45.242188 150.183594 45.574219 150.515625 C 45.910156 150.851562 46.273438 151.152344 46.667969 151.414062 C 47.0625 151.675781 47.476562 151.898438 47.914062 152.078125 C 48.351562 152.261719 48.800781 152.398438 49.265625 152.488281 C 49.730469 152.582031 50.199219 152.628906 50.671875 152.628906 C 51.144531 152.628906 51.613281 152.582031 52.078125 152.488281 C 52.542969 152.398438 52.992188 152.261719 53.429688 152.078125 C 53.867188 151.898438 54.28125 151.675781 54.675781 151.414062 C 55.066406 151.152344 55.433594 150.851562 55.765625 150.515625 C 56.101562 150.183594 56.398438 149.820312 56.664062 149.425781 C 56.925781 149.03125 57.148438 148.617188 57.328125 148.179688 C 57.511719 147.742188 57.648438 147.292969 57.738281 146.828125 C 57.832031 146.363281 57.878906 145.894531 57.878906 145.421875 C 57.878906 144.949219 57.832031 144.480469 57.738281 144.015625 C 57.648438 143.550781 57.511719 143.101562 57.328125 142.664062 C 57.148438 142.226562 56.925781 141.8125 56.664062 141.417969 C 56.398438 141.023438 56.101562 140.660156 55.765625 140.324219 C 55.433594 139.992188 55.066406 139.691406 54.675781 139.429688 C 54.28125 139.167969 53.867188 138.945312 53.429688 138.765625 C 52.992188 138.582031 52.542969 138.445312 52.078125 138.355469 C 51.613281 138.261719 51.144531 138.214844 50.671875 138.214844 Z M 226.507812 89.210938 C 226.222656 89.210938 225.941406 89.238281 225.664062 89.296875 C 225.382812 89.351562 225.113281 89.433594 224.851562 89.542969 C 224.589844 89.648438 224.339844 89.78125 224.105469 89.941406 C 223.867188 90.097656 223.648438 90.277344 223.449219 90.480469 C 223.246094 90.679688 223.070312 90.898438 222.910156 91.132812 C 222.753906 91.371094 222.621094 91.617188 222.511719 91.882812 C 222.402344 92.144531 222.320312 92.414062 222.265625 92.691406 C 222.210938 92.972656 222.183594 93.253906 222.183594 93.535156 C 222.183594 93.820312 222.210938 94.101562 222.265625 94.378906 C 222.320312 94.65625 222.402344 94.929688 222.511719 95.191406 C 222.621094 95.453125 222.753906 95.703125 222.910156 95.9375 C 223.070312 96.175781 223.246094 96.394531 223.449219 96.59375 C 223.648438 96.792969 223.867188 96.972656 224.105469 97.132812 C 224.339844 97.289062 224.589844 97.421875 224.851562 97.53125 C 225.113281 97.640625 225.382812 97.722656 225.664062 97.777344 C 225.941406 97.832031 226.222656 97.859375 226.507812 97.859375 C 226.789062 97.859375 227.070312 97.832031 227.347656 97.777344 C 227.628906 97.722656 227.898438 97.640625 228.160156 97.53125 C 228.421875 97.421875 228.671875 97.289062 228.90625 97.132812 C 229.144531 96.972656 229.363281 96.792969 229.5625 96.59375 C 229.765625 96.394531 229.941406 96.175781 230.101562 95.9375 C 230.257812 95.703125 230.390625 95.453125 230.5 95.191406 C 230.609375 94.929688 230.691406 94.65625 230.746094 94.378906 C 230.800781 94.101562 230.828125 93.820312 230.828125 93.535156 C 230.828125 93.253906 230.800781 92.972656 230.746094 92.691406 C 230.691406 92.414062 230.609375 92.144531 230.5 91.882812 C 230.390625 91.617188 230.257812 91.371094 230.101562 91.132812 C 229.941406 90.898438 229.765625 90.679688 229.5625 90.480469 C 229.363281 90.277344 229.144531 90.097656 228.90625 89.941406 C 228.671875 89.78125 228.421875 89.648438 228.160156 89.542969 C 227.898438 89.433594 227.628906 89.351562 227.347656 89.296875 C 227.070312 89.238281 226.789062 89.210938 226.507812 89.210938 Z M 226.507812 89.210938 " fill-opacity="1" fill-rule="nonzero"/><path fill="#fefdef" d="M 98.234375 205.378906 C 86.632812 205.378906 77.191406 195.941406 77.191406 184.335938 L 77.191406 97.859375 C 77.191406 86.257812 86.628906 76.816406 98.234375 76.816406 L 184.710938 76.816406 C 196.3125 76.816406 205.75 86.253906 205.75 97.859375 L 205.75 184.335938 C 205.75 195.9375 196.3125 205.378906 184.710938 205.378906 Z M 98.234375 205.378906 " fill-opacity="1" fill-rule="nonzero"/><path fill="#472b29" d="M 184.710938 78.835938 C 195.199219 78.835938 203.734375 87.371094 203.734375 97.859375 L 203.734375 184.335938 C 203.734375 194.824219 195.199219 203.359375 184.710938 203.359375 L 98.234375 203.359375 C 87.742188 203.359375 79.207031 194.824219 79.207031 184.335938 L 79.207031 97.859375 C 79.207031 87.371094 87.742188 78.835938 98.234375 78.835938 L 184.710938 78.835938 M 184.710938 74.800781 L 98.234375 74.800781 C 85.550781 74.800781 75.171875 85.175781 75.171875 97.859375 L 75.171875 184.335938 C 75.171875 197.019531 85.550781 207.394531 98.234375 207.394531 L 184.710938 207.394531 C 197.390625 207.394531 207.769531 197.019531 207.769531 184.335938 L 207.769531 97.859375 C 207.769531 85.175781 197.390625 74.800781 184.710938 74.800781 Z M 184.710938 74.800781 " fill-opacity="1" fill-rule="nonzero"/><path fill="#472b29" d="M 184.53125 97.679688 L 173.359375 97.679688 C 172.566406 97.679688 171.917969 97.035156 171.917969 96.238281 C 171.917969 95.445312 172.566406 94.796875 173.359375 94.796875 L 184.53125 94.796875 C 185.324219 94.796875 185.972656 95.445312 185.972656 96.238281 C 185.972656 97.035156 185.324219 97.679688 184.53125 97.679688 Z M 98.234375 189.921875 L 78.238281 189.921875 C 77.441406 189.921875 76.796875 189.277344 76.796875 188.480469 C 76.796875 187.683594 77.441406 187.039062 78.238281 187.039062 L 98.234375 187.039062 C 99.03125 187.039062 99.675781 187.683594 99.675781 188.480469 C 99.675781 189.277344 99.035156 189.921875 98.234375 189.921875 Z M 204.90625 189.921875 L 107.085938 189.921875 C 106.289062 189.921875 105.644531 189.277344 105.644531 188.480469 C 105.644531 187.683594 106.289062 187.039062 107.085938 187.039062 L 204.90625 187.039062 C 205.703125 187.039062 206.347656 187.683594 206.347656 188.480469 C 206.347656 189.277344 205.707031 189.921875 204.90625 189.921875 Z M 164.386719 97.679688 L 78.09375 97.679688 C 77.296875 97.679688 76.652344 97.035156 76.652344 96.238281 C 76.652344 95.445312 77.296875 94.796875 78.09375 94.796875 L 164.386719 94.796875 C 165.183594 94.796875 165.828125 95.445312 165.828125 96.238281 C 165.828125 97.035156 165.1875 97.679688 164.386719 97.679688 Z M 118.410156 114.976562 L 89.617188 114.976562 C 88.820312 114.976562 88.175781 114.332031 88.175781 113.535156 C 88.175781 112.738281 88.820312 112.09375 89.617188 112.09375 L 118.410156 112.09375 C 119.207031 112.09375 119.851562 112.738281 119.851562 113.535156 C 119.851562 114.332031 119.207031 114.976562 118.410156 114.976562 Z M 131.382812 180.011719 C 130.585938 180.011719 129.941406 179.367188 129.941406 178.570312 L 129.941406 106.347656 C 129.941406 105.550781 130.585938 104.90625 131.382812 104.90625 C 132.179688 104.90625 132.824219 105.550781 132.824219 106.347656 L 132.824219 178.570312 C 132.824219 179.367188 132.179688 180.011719 131.382812 180.011719 Z M 118.410156 129.390625 L 89.617188 129.390625 C 88.820312 129.390625 88.175781 128.742188 88.175781 127.949219 C 88.175781 127.152344 88.820312 126.507812 89.617188 126.507812 L 118.410156 126.507812 C 119.207031 126.507812 119.851562 127.152344 119.851562 127.949219 C 119.851562 128.742188 119.207031 129.390625 118.410156 129.390625 Z M 118.410156 143.800781 L 89.617188 143.800781 C 88.820312 143.800781 88.175781 143.15625 88.175781 142.359375 C 88.175781 141.566406 88.820312 140.917969 89.617188 140.917969 L 118.410156 140.917969 C 119.207031 140.917969 119.851562 141.566406 119.851562 142.359375 C 119.851562 143.15625 119.207031 143.800781 118.410156 143.800781 Z M 118.410156 158.214844 L 89.617188 158.214844 C 88.820312 158.214844 88.175781 157.570312 88.175781 156.773438 C 88.175781 155.976562 88.820312 155.332031 89.617188 155.332031 L 118.410156 155.332031 C 119.207031 155.332031 119.851562 155.976562 119.851562 156.773438 C 119.851562 157.570312 119.207031 158.214844 118.410156 158.214844 Z M 118.410156 158.214844 " fill-opacity="1" fill-rule="nonzero"/><path fill="#472b29" d="M 118.410156 172.628906 L 89.617188 172.628906 C 88.820312 172.628906 88.175781 171.980469 88.175781 171.1875 C 88.175781 170.390625 88.820312 169.746094 89.617188 169.746094 L 118.410156 169.746094 C 119.207031 169.746094 119.851562 170.390625 119.851562 171.1875 C 119.851562 171.980469 119.207031 172.628906 118.410156 172.628906 Z M 118.410156 172.628906 " fill-opacity="1" fill-rule="nonzero"/><path fill="#472b29" d="M 158.765625 158.214844 L 141.5 158.214844 C 140.703125 158.214844 140.058594 157.570312 140.058594 156.773438 C 140.058594 155.976562 140.703125 155.332031 141.5 155.332031 L 158.765625 155.332031 C 159.5625 155.332031 160.207031 155.976562 160.207031 156.773438 C 160.207031 157.570312 159.5625 158.214844 158.765625 158.214844 Z M 158.765625 158.214844 " fill-opacity="1" fill-rule="nonzero"/><path fill="#472b29" d="M 158.765625 172.628906 L 141.5 172.628906 C 140.703125 172.628906 140.058594 171.980469 140.058594 171.1875 C 140.058594 170.390625 140.703125 169.746094 141.5 169.746094 L 158.765625 169.746094 C 159.5625 169.746094 160.207031 170.390625 160.207031 171.1875 C 160.207031 171.980469 159.5625 172.628906 158.765625 172.628906 Z M 158.765625 172.628906 " fill-opacity="1" fill-rule="nonzero"/><path fill="#472b29" d="M 198.941406 97.679688 L 193.179688 97.679688 C 192.382812 97.679688 191.738281 97.035156 191.738281 96.238281 C 191.738281 95.445312 192.382812 94.796875 193.179688 94.796875 L 198.941406 94.796875 C 199.738281 94.796875 200.382812 95.445312 200.382812 96.238281 C 200.382812 97.035156 199.738281 97.679688 198.941406 97.679688 Z M 198.941406 97.679688 " fill-opacity="1" fill-rule="nonzero"/><path fill="#ee3e54" d="M 99.136719 83.632812 C 98.652344 83.632812 98.1875 83.722656 97.738281 83.910156 C 97.292969 84.09375 96.898438 84.359375 96.558594 84.699219 C 96.214844 85.042969 95.953125 85.4375 95.765625 85.882812 C 95.582031 86.328125 95.488281 86.792969 95.488281 87.277344 C 95.488281 87.761719 95.582031 88.226562 95.765625 88.671875 C 95.953125 89.121094 96.214844 89.515625 96.558594 89.855469 C 96.898438 90.199219 97.292969 90.460938 97.738281 90.648438 C 98.1875 90.832031 98.652344 90.925781 99.136719 90.925781 C 99.617188 90.925781 100.085938 90.832031 100.53125 90.648438 C 100.976562 90.460938 101.371094 90.199219 101.714844 89.855469 C 102.054688 89.515625 102.320312 89.121094 102.503906 88.671875 C 102.6875 88.226562 102.78125 87.761719 102.78125 87.277344 C 102.78125 86.792969 102.6875 86.328125 102.503906 85.882812 C 102.320312 85.4375 102.054688 85.042969 101.714844 84.699219 C 101.371094 84.359375 100.976562 84.09375 100.53125 83.910156 C 100.085938 83.722656 99.617188 83.632812 99.136719 83.632812 Z M 99.136719 83.632812 " fill-opacity="1" fill-rule="nonzero"/><path fill="#472b29" d="M 99.136719 91.785156 C 96.652344 91.785156 94.628906 89.761719 94.628906 87.277344 C 94.628906 84.789062 96.652344 82.769531 99.136719 82.769531 C 101.621094 82.769531 103.644531 84.792969 103.644531 87.277344 C 103.644531 89.761719 101.621094 91.785156 99.136719 91.785156 Z M 99.136719 84.496094 C 97.601562 84.496094 96.355469 85.746094 96.355469 87.277344 C 96.355469 88.8125 97.601562 90.058594 99.136719 90.058594 C 100.667969 90.058594 101.917969 88.8125 101.917969 87.277344 C 101.917969 85.746094 100.667969 84.496094 99.136719 84.496094 Z M 99.136719 84.496094 " fill-opacity="1" fill-rule="nonzero"/><path fill="#f1bc19" d="M 111.894531 83.632812 C 111.410156 83.632812 110.945312 83.722656 110.496094 83.910156 C 110.050781 84.09375 109.65625 84.359375 109.316406 84.699219 C 108.972656 85.042969 108.710938 85.4375 108.523438 85.882812 C 108.339844 86.328125 108.246094 86.792969 108.246094 87.277344 C 108.246094 87.761719 108.339844 88.226562 108.523438 88.671875 C 108.710938 89.121094 108.972656 89.515625 109.316406 89.855469 C 109.65625 90.199219 110.050781 90.460938 110.496094 90.648438 C 110.945312 90.832031 111.410156 90.925781 111.894531 90.925781 C 112.378906 90.925781 112.84375 90.832031 113.289062 90.648438 C 113.734375 90.460938 114.128906 90.199219 114.472656 89.855469 C 114.8125 89.515625 115.078125 89.121094 115.261719 88.671875 C 115.449219 88.226562 115.539062 87.761719 115.539062 87.277344 C 115.539062 86.792969 115.449219 86.328125 115.261719 85.882812 C 115.078125 85.4375 114.8125 85.042969 114.472656 84.699219 C 114.128906 84.359375 113.734375 84.09375 113.289062 83.910156 C 112.84375 83.722656 112.378906 83.632812 111.894531 83.632812 Z M 111.894531 83.632812 " fill-opacity="1" fill-rule="nonzero"/><path fill="#472b29" d="M 111.894531 91.785156 C 109.410156 91.785156 107.386719 89.761719 107.386719 87.277344 C 107.386719 84.789062 109.410156 82.769531 111.894531 82.769531 C 114.378906 82.769531 116.402344 84.792969 116.402344 87.277344 C 116.402344 89.761719 114.378906 91.785156 111.894531 91.785156 Z M 111.894531 84.496094 C 110.363281 84.496094 109.113281 85.746094 109.113281 87.277344 C 109.113281 88.8125 110.363281 90.058594 111.894531 90.058594 C 113.425781 90.058594 114.675781 88.8125 114.675781 87.277344 C 114.675781 85.746094 113.425781 84.496094 111.894531 84.496094 Z M 111.894531 84.496094 " fill-opacity="1" fill-rule="nonzero"/><path fill="#88ae45" d="M 124.652344 83.632812 C 124.167969 83.632812 123.703125 83.722656 123.257812 83.910156 C 122.808594 84.09375 122.414062 84.359375 122.074219 84.699219 C 121.730469 85.042969 121.46875 85.4375 121.28125 85.882812 C 121.097656 86.328125 121.003906 86.792969 121.003906 87.277344 C 121.003906 87.761719 121.097656 88.226562 121.28125 88.671875 C 121.46875 89.121094 121.730469 89.515625 122.074219 89.855469 C 122.414062 90.199219 122.808594 90.460938 123.257812 90.648438 C 123.703125 90.832031 124.167969 90.925781 124.652344 90.925781 C 125.136719 90.925781 125.601562 90.832031 126.046875 90.648438 C 126.492188 90.460938 126.886719 90.199219 127.230469 89.855469 C 127.570312 89.515625 127.835938 89.121094 128.019531 88.671875 C 128.207031 88.226562 128.296875 87.761719 128.296875 87.277344 C 128.296875 86.792969 128.207031 86.328125 128.019531 85.882812 C 127.835938 85.4375 127.570312 85.042969 127.230469 84.699219 C 126.886719 84.359375 126.492188 84.09375 126.046875 83.910156 C 125.601562 83.722656 125.136719 83.632812 124.652344 83.632812 Z M 124.652344 83.632812 " fill-opacity="1" fill-rule="nonzero"/><path fill="#472b29" d="M 124.65625 91.785156 C 122.167969 91.785156 120.144531 89.761719 120.144531 87.277344 C 120.144531 84.789062 122.167969 82.769531 124.65625 82.769531 C 127.140625 82.769531 129.160156 84.792969 129.160156 87.277344 C 129.160156 89.761719 127.140625 91.785156 124.65625 91.785156 Z M 124.65625 84.496094 C 123.121094 84.496094 121.871094 85.746094 121.871094 87.277344 C 121.871094 88.8125 123.121094 90.058594 124.65625 90.058594 C 126.183594 90.058594 127.433594 88.8125 127.433594 87.277344 C 127.429688 85.746094 126.183594 84.496094 124.65625 84.496094 Z M 124.65625 84.496094 " fill-opacity="1" fill-rule="nonzero"/><path fill="#fef6aa" d="M 142.914062 110.832031 L 194.796875 110.832031 L 194.796875 139.65625 L 142.914062 139.65625 Z M 142.914062 110.832031 " fill-opacity="1" fill-rule="nonzero"/><path fill="#fef6aa" d="M 146.277344 139.65625 L 142.914062 139.65625 L 142.914062 110.832031 L 194.796875 110.832031 L 194.796875 139.65625 L 161.167969 139.65625 " fill-opacity="1" fill-rule="nonzero"/><path fill="#472b29" d="M 194.796875 141.097656 L 161.167969 141.097656 C 160.371094 141.097656 159.726562 140.453125 159.726562 139.65625 C 159.726562 138.859375 160.371094 138.214844 161.167969 138.214844 L 193.355469 138.214844 L 193.355469 112.273438 L 144.355469 112.273438 L 144.355469 138.214844 L 146.277344 138.214844 C 147.070312 138.214844 147.71875 138.859375 147.71875 139.65625 C 147.71875 140.453125 147.070312 141.097656 146.277344 141.097656 L 142.914062 141.097656 C 142.117188 141.097656 141.472656 140.453125 141.472656 139.65625 L 141.472656 110.832031 C 141.472656 110.035156 142.117188 109.390625 142.914062 109.390625 L 194.796875 109.390625 C 195.59375 109.390625 196.238281 110.035156 196.238281 110.832031 L 196.238281 139.65625 C 196.238281 140.453125 195.59375 141.097656 194.796875 141.097656 Z M 194.796875 141.097656 " fill-opacity="1" fill-rule="nonzero"/><path fill="#472b29" d="M 156.066406 141.097656 L 151.558594 141.097656 C 150.765625 141.097656 150.117188 140.453125 150.117188 139.65625 C 150.117188 138.859375 150.765625 138.214844 151.558594 138.214844 L 156.066406 138.214844 C 156.859375 138.214844 157.507812 138.859375 157.507812 139.65625 C 157.507812 140.453125 156.859375 141.097656 156.066406 141.097656 Z M 156.066406 141.097656 " fill-opacity="1" fill-rule="nonzero"/><path fill="#fef6aa" d="M 168.855469 148.304688 L 194.796875 148.304688 L 194.796875 177.128906 L 168.855469 177.128906 Z M 168.855469 148.304688 " fill-opacity="1" fill-rule="nonzero"/><path fill="#472b29" d="M 194.796875 178.570312 L 168.855469 178.570312 C 168.058594 178.570312 167.414062 177.925781 167.414062 177.128906 L 167.414062 148.304688 C 167.414062 147.507812 168.058594 146.863281 168.855469 146.863281 L 194.796875 146.863281 C 195.59375 146.863281 196.238281 147.507812 196.238281 148.304688 L 196.238281 177.128906 C 196.238281 177.925781 195.59375 178.570312 194.796875 178.570312 Z M 170.296875 175.6875 L 193.355469 175.6875 L 193.355469 149.746094 L 170.296875 149.746094 Z M 170.296875 175.6875 " fill-opacity="1" fill-rule="nonzero"/></svg>