<svg xmlns="http://www.w3.org/2000/svg" xmlns:xlink="http://www.w3.org/1999/xlink" width="377" zoomAndPan="magnify" viewBox="0 0 282.96 283.499996" height="377" preserveAspectRatio="xMidYMid meet" version="1.0"><defs><clipPath id="d2624d7a0a"><path d="M 225 28.246094 L 249 28.246094 L 249 52 L 225 52 Z M 225 28.246094 " clip-rule="nonzero"/></clipPath><clipPath id="860bbbfdbd"><path d="M 63 241 L 76 241 L 76 253.949219 L 63 253.949219 Z M 63 241 " clip-rule="nonzero"/></clipPath></defs><path fill="#00a5a5" d="M 34.816406 74.800781 C 34.4375 74.800781 34.0625 74.835938 33.691406 74.910156 C 33.320312 74.984375 32.960938 75.09375 32.609375 75.238281 C 32.261719 75.382812 31.929688 75.5625 31.613281 75.769531 C 31.300781 75.980469 31.007812 76.21875 30.742188 76.488281 C 30.472656 76.753906 30.234375 77.046875 30.023438 77.363281 C 29.8125 77.675781 29.636719 78.007812 29.492188 78.359375 C 29.347656 78.707031 29.238281 79.070312 29.164062 79.441406 C 29.089844 79.8125 29.050781 80.1875 29.050781 80.566406 C 29.050781 80.941406 29.089844 81.316406 29.164062 81.6875 C 29.238281 82.0625 29.347656 82.421875 29.492188 82.769531 C 29.636719 83.121094 29.8125 83.453125 30.023438 83.765625 C 30.234375 84.082031 30.472656 84.375 30.742188 84.640625 C 31.007812 84.910156 31.300781 85.148438 31.613281 85.359375 C 31.929688 85.570312 32.261719 85.746094 32.609375 85.890625 C 32.960938 86.035156 33.320312 86.144531 33.691406 86.21875 C 34.0625 86.292969 34.4375 86.328125 34.816406 86.328125 C 35.195312 86.328125 35.570312 86.292969 35.941406 86.21875 C 36.3125 86.144531 36.671875 86.035156 37.023438 85.890625 C 37.375 85.746094 37.707031 85.570312 38.019531 85.359375 C 38.335938 85.148438 38.625 84.910156 38.894531 84.640625 C 39.160156 84.375 39.402344 84.082031 39.609375 83.765625 C 39.820312 83.453125 40 83.121094 40.144531 82.769531 C 40.289062 82.421875 40.398438 82.0625 40.472656 81.6875 C 40.546875 81.316406 40.582031 80.941406 40.582031 80.566406 C 40.582031 80.1875 40.546875 79.8125 40.472656 79.441406 C 40.398438 79.070312 40.289062 78.707031 40.144531 78.359375 C 40 78.007812 39.820312 77.675781 39.609375 77.363281 C 39.402344 77.046875 39.160156 76.753906 38.894531 76.488281 C 38.625 76.21875 38.335938 75.980469 38.019531 75.769531 C 37.707031 75.5625 37.375 75.382812 37.023438 75.238281 C 36.671875 75.09375 36.3125 74.984375 35.941406 74.910156 C 35.570312 74.835938 35.195312 74.800781 34.816406 74.800781 Z M 34.816406 74.800781 " fill-opacity="1" fill-rule="nonzero"/><path fill="#f1bc19" d="M 219.300781 31.5625 C 218.917969 31.5625 218.550781 31.632812 218.195312 31.78125 C 217.84375 31.925781 217.53125 32.136719 217.261719 32.40625 C 216.992188 32.675781 216.78125 32.988281 216.636719 33.339844 C 216.488281 33.695312 216.417969 34.0625 216.417969 34.445312 C 216.417969 34.828125 216.488281 35.195312 216.636719 35.546875 C 216.78125 35.898438 216.992188 36.210938 217.261719 36.480469 C 217.53125 36.753906 217.84375 36.960938 218.195312 37.105469 C 218.550781 37.253906 218.917969 37.328125 219.300781 37.328125 C 219.683594 37.328125 220.050781 37.253906 220.402344 37.105469 C 220.753906 36.960938 221.066406 36.753906 221.335938 36.480469 C 221.609375 36.210938 221.816406 35.898438 221.960938 35.546875 C 222.109375 35.195312 222.183594 34.828125 222.183594 34.445312 C 222.183594 34.0625 222.109375 33.695312 221.960938 33.339844 C 221.816406 32.988281 221.609375 32.675781 221.335938 32.40625 C 221.066406 32.136719 220.753906 31.925781 220.402344 31.78125 C 220.050781 31.632812 219.683594 31.5625 219.300781 31.5625 Z M 219.300781 31.5625 " fill-opacity="1" fill-rule="nonzero"/><path fill="#c0e5e4" d="M 141.472656 34.445312 C 139.726562 34.445312 137.980469 34.488281 136.238281 34.574219 C 134.496094 34.660156 132.753906 34.785156 131.015625 34.957031 C 129.28125 35.128906 127.546875 35.34375 125.820312 35.597656 C 124.09375 35.855469 122.375 36.152344 120.664062 36.492188 C 118.953125 36.832031 117.25 37.214844 115.554688 37.640625 C 113.863281 38.066406 112.179688 38.53125 110.511719 39.035156 C 108.839844 39.542969 107.183594 40.089844 105.539062 40.679688 C 103.898438 41.265625 102.269531 41.894531 100.65625 42.5625 C 99.042969 43.230469 97.449219 43.9375 95.871094 44.683594 C 94.292969 45.429688 92.734375 46.214844 91.195312 47.039062 C 89.65625 47.859375 88.136719 48.71875 86.640625 49.617188 C 85.144531 50.515625 83.667969 51.449219 82.21875 52.417969 C 80.765625 53.386719 79.339844 54.394531 77.9375 55.433594 C 76.535156 56.472656 75.160156 57.546875 73.8125 58.652344 C 72.460938 59.761719 71.140625 60.902344 69.847656 62.074219 C 68.554688 63.246094 67.289062 64.449219 66.054688 65.683594 C 64.820312 66.917969 63.617188 68.179688 62.445312 69.472656 C 61.273438 70.765625 60.132812 72.089844 59.027344 73.4375 C 57.917969 74.785156 56.847656 76.164062 55.804688 77.5625 C 54.765625 78.964844 53.761719 80.394531 52.792969 81.84375 C 51.820312 83.296875 50.886719 84.769531 49.992188 86.265625 C 49.09375 87.765625 48.234375 89.28125 47.410156 90.820312 C 46.589844 92.359375 45.804688 93.917969 45.058594 95.496094 C 44.3125 97.074219 43.605469 98.671875 42.9375 100.285156 C 42.269531 101.894531 41.640625 103.523438 41.050781 105.167969 C 40.464844 106.8125 39.917969 108.46875 39.410156 110.136719 C 38.902344 111.808594 38.4375 113.488281 38.011719 115.183594 C 37.589844 116.875 37.207031 118.578125 36.867188 120.289062 C 36.527344 122.003906 36.226562 123.722656 35.972656 125.449219 C 35.714844 127.175781 35.503906 128.90625 35.332031 130.644531 C 35.160156 132.382812 35.03125 134.121094 34.945312 135.863281 C 34.859375 137.609375 34.816406 139.351562 34.816406 141.097656 C 34.816406 142.84375 34.859375 144.585938 34.945312 146.332031 C 35.03125 148.074219 35.160156 149.816406 35.332031 151.550781 C 35.503906 153.289062 35.714844 155.019531 35.972656 156.746094 C 36.226562 158.472656 36.527344 160.191406 36.867188 161.90625 C 37.207031 163.617188 37.589844 165.320312 38.011719 167.011719 C 38.4375 168.707031 38.902344 170.386719 39.410156 172.058594 C 39.917969 173.726562 40.464844 175.386719 41.050781 177.027344 C 41.640625 178.671875 42.269531 180.300781 42.9375 181.914062 C 43.605469 183.523438 44.3125 185.121094 45.058594 186.699219 C 45.804688 188.277344 46.589844 189.835938 47.410156 191.375 C 48.234375 192.914062 49.09375 194.433594 49.992188 195.929688 C 50.886719 197.425781 51.820312 198.898438 52.792969 200.351562 C 53.761719 201.804688 54.765625 203.230469 55.804688 204.632812 C 56.847656 206.035156 57.917969 207.410156 59.027344 208.757812 C 60.132812 210.109375 61.273438 211.429688 62.445312 212.722656 C 63.617188 214.015625 64.820312 215.277344 66.054688 216.511719 C 67.289062 217.746094 68.554688 218.949219 69.847656 220.125 C 71.140625 221.296875 72.460938 222.433594 73.8125 223.542969 C 75.160156 224.648438 76.535156 225.722656 77.9375 226.761719 C 79.339844 227.800781 80.765625 228.808594 82.21875 229.777344 C 83.667969 230.746094 85.144531 231.679688 86.640625 232.578125 C 88.136719 233.476562 89.65625 234.335938 91.195312 235.15625 C 92.734375 235.980469 94.292969 236.765625 95.871094 237.511719 C 97.449219 238.257812 99.042969 238.964844 100.65625 239.632812 C 102.269531 240.300781 103.898438 240.929688 105.539062 241.515625 C 107.183594 242.105469 108.839844 242.652344 110.511719 243.160156 C 112.179688 243.664062 113.863281 244.132812 115.554688 244.554688 C 117.25 244.980469 118.953125 245.363281 120.664062 245.703125 C 122.375 246.042969 124.09375 246.339844 125.820312 246.597656 C 127.546875 246.851562 129.28125 247.066406 131.015625 247.238281 C 132.753906 247.410156 134.496094 247.539062 136.238281 247.625 C 137.980469 247.707031 139.726562 247.75 141.472656 247.75 C 143.214844 247.75 144.960938 247.707031 146.703125 247.625 C 148.449219 247.539062 150.1875 247.410156 151.925781 247.238281 C 153.660156 247.066406 155.394531 246.851562 157.121094 246.597656 C 158.847656 246.339844 160.566406 246.042969 162.277344 245.703125 C 163.988281 245.363281 165.691406 244.980469 167.386719 244.554688 C 169.078125 244.132812 170.761719 243.664062 172.429688 243.160156 C 174.101562 242.652344 175.757812 242.105469 177.402344 241.515625 C 179.046875 240.929688 180.671875 240.300781 182.285156 239.632812 C 183.898438 238.964844 185.492188 238.257812 187.070312 237.511719 C 188.648438 236.765625 190.207031 235.980469 191.746094 235.15625 C 193.285156 234.335938 194.804688 233.476562 196.300781 232.578125 C 197.800781 231.679688 199.273438 230.746094 200.726562 229.777344 C 202.175781 228.808594 203.601562 227.800781 205.003906 226.761719 C 206.40625 225.722656 207.78125 224.648438 209.132812 223.542969 C 210.480469 222.433594 211.800781 221.296875 213.09375 220.125 C 214.386719 218.949219 215.652344 217.746094 216.886719 216.511719 C 218.121094 215.277344 219.324219 214.015625 220.496094 212.722656 C 221.667969 211.429688 222.808594 210.109375 223.914062 208.757812 C 225.023438 207.410156 226.097656 206.035156 227.136719 204.632812 C 228.175781 203.230469 229.179688 201.804688 230.152344 200.351562 C 231.121094 198.898438 232.054688 197.425781 232.949219 195.929688 C 233.847656 194.433594 234.707031 192.914062 235.53125 191.375 C 236.355469 189.835938 237.136719 188.277344 237.886719 186.699219 C 238.632812 185.121094 239.339844 183.523438 240.007812 181.914062 C 240.675781 180.300781 241.300781 178.671875 241.890625 177.027344 C 242.476562 175.386719 243.027344 173.726562 243.53125 172.058594 C 244.039062 170.386719 244.503906 168.707031 244.929688 167.011719 C 245.351562 165.320312 245.734375 163.617188 246.074219 161.90625 C 246.417969 160.191406 246.714844 158.472656 246.96875 156.746094 C 247.226562 155.019531 247.441406 153.289062 247.609375 151.550781 C 247.78125 149.816406 247.910156 148.074219 247.996094 146.332031 C 248.082031 144.585938 248.125 142.84375 248.125 141.097656 C 248.125 139.351562 248.082031 137.609375 247.996094 135.863281 C 247.910156 134.121094 247.78125 132.382812 247.609375 130.644531 C 247.441406 128.90625 247.226562 127.175781 246.96875 125.449219 C 246.714844 123.722656 246.417969 122.003906 246.074219 120.289062 C 245.734375 118.578125 245.351562 116.875 244.929688 115.183594 C 244.503906 113.488281 244.039062 111.808594 243.53125 110.136719 C 243.027344 108.46875 242.476562 106.8125 241.890625 105.167969 C 241.300781 103.523438 240.675781 101.894531 240.007812 100.285156 C 239.339844 98.671875 238.632812 97.074219 237.886719 95.496094 C 237.136719 93.917969 236.355469 92.359375 235.53125 90.820312 C 234.707031 89.28125 233.847656 87.765625 232.949219 86.265625 C 232.054688 84.769531 231.121094 83.296875 230.152344 81.84375 C 229.179688 80.394531 228.175781 78.964844 227.136719 77.5625 C 226.097656 76.164062 225.023438 74.785156 223.914062 73.4375 C 222.808594 72.089844 221.667969 70.765625 220.496094 69.472656 C 219.324219 68.179688 218.121094 66.917969 216.886719 65.683594 C 215.652344 64.449219 214.386719 63.246094 213.09375 62.074219 C 211.800781 60.902344 210.480469 59.761719 209.132812 58.652344 C 207.78125 57.546875 206.40625 56.472656 205.003906 55.433594 C 203.601562 54.394531 202.175781 53.386719 200.726562 52.417969 C 199.273438 51.449219 197.800781 50.515625 196.300781 49.617188 C 194.804688 48.71875 193.285156 47.859375 191.746094 47.039062 C 190.207031 46.214844 188.648438 45.429688 187.070312 44.683594 C 185.492188 43.9375 183.898438 43.230469 182.285156 42.5625 C 180.671875 41.894531 179.046875 41.265625 177.402344 40.679688 C 175.757812 40.089844 174.101562 39.542969 172.429688 39.035156 C 170.761719 38.53125 169.078125 38.066406 167.386719 37.640625 C 165.691406 37.214844 163.988281 36.832031 162.277344 36.492188 C 160.566406 36.152344 158.847656 35.855469 157.121094 35.597656 C 155.394531 35.34375 153.660156 35.128906 151.925781 34.957031 C 150.1875 34.785156 148.449219 34.660156 146.703125 34.574219 C 144.960938 34.488281 143.214844 34.445312 141.472656 34.445312 Z M 141.472656 34.445312 " fill-opacity="1" fill-rule="nonzero"/><g clip-path="url(#d2624d7a0a)"><path fill="#f1bc19" d="M 236.59375 28.679688 C 235.835938 28.679688 235.085938 28.753906 234.34375 28.902344 C 233.601562 29.046875 232.882812 29.265625 232.183594 29.558594 C 231.484375 29.847656 230.820312 30.203125 230.1875 30.621094 C 229.558594 31.042969 228.976562 31.519531 228.441406 32.054688 C 227.90625 32.589844 227.429688 33.175781 227.007812 33.804688 C 226.585938 34.433594 226.230469 35.097656 225.941406 35.796875 C 225.652344 36.496094 225.433594 37.21875 225.285156 37.960938 C 225.136719 38.703125 225.066406 39.453125 225.066406 40.210938 C 225.066406 40.964844 225.136719 41.714844 225.285156 42.457031 C 225.433594 43.199219 225.652344 43.921875 225.941406 44.621094 C 226.230469 45.320312 226.585938 45.984375 227.007812 46.613281 C 227.429688 47.246094 227.90625 47.828125 228.441406 48.363281 C 228.976562 48.898438 229.558594 49.375 230.1875 49.796875 C 230.820312 50.214844 231.484375 50.570312 232.183594 50.863281 C 232.882812 51.152344 233.601562 51.371094 234.34375 51.519531 C 235.085938 51.664062 235.835938 51.738281 236.59375 51.738281 C 237.351562 51.738281 238.101562 51.664062 238.84375 51.519531 C 239.585938 51.371094 240.308594 51.152344 241.007812 50.863281 C 241.707031 50.570312 242.371094 50.214844 243 49.796875 C 243.628906 49.375 244.210938 48.898438 244.746094 48.363281 C 245.28125 47.828125 245.761719 47.246094 246.183594 46.613281 C 246.601562 45.984375 246.957031 45.320312 247.246094 44.621094 C 247.535156 43.921875 247.753906 43.199219 247.902344 42.457031 C 248.050781 41.714844 248.125 40.964844 248.125 40.210938 C 248.125 39.453125 248.050781 38.703125 247.902344 37.960938 C 247.753906 37.21875 247.535156 36.496094 247.246094 35.796875 C 246.957031 35.097656 246.601562 34.433594 246.183594 33.804688 C 245.761719 33.175781 245.28125 32.589844 244.746094 32.054688 C 244.210938 31.519531 243.628906 31.042969 243 30.621094 C 242.371094 30.203125 241.707031 29.847656 241.007812 29.558594 C 240.308594 29.265625 239.585938 29.046875 238.84375 28.902344 C 238.101562 28.753906 237.351562 28.679688 236.59375 28.679688 Z M 236.59375 28.679688 " fill-opacity="1" fill-rule="nonzero"/></g><path fill="#00a5a5" d="M 248.125 60.386719 C 247.746094 60.386719 247.371094 60.425781 247 60.496094 C 246.628906 60.570312 246.269531 60.679688 245.917969 60.824219 C 245.570312 60.96875 245.238281 61.148438 244.921875 61.359375 C 244.605469 61.570312 244.316406 61.808594 244.046875 62.074219 C 243.78125 62.34375 243.542969 62.632812 243.332031 62.949219 C 243.121094 63.265625 242.945312 63.597656 242.796875 63.945312 C 242.652344 64.296875 242.542969 64.65625 242.46875 65.027344 C 242.398438 65.398438 242.359375 65.773438 242.359375 66.152344 C 242.359375 66.53125 242.398438 66.90625 242.46875 67.277344 C 242.542969 67.648438 242.652344 68.007812 242.796875 68.359375 C 242.945312 68.707031 243.121094 69.039062 243.332031 69.355469 C 243.542969 69.667969 243.78125 69.960938 244.046875 70.226562 C 244.316406 70.496094 244.605469 70.734375 244.921875 70.945312 C 245.238281 71.15625 245.570312 71.332031 245.917969 71.476562 C 246.269531 71.625 246.628906 71.730469 247 71.804688 C 247.371094 71.878906 247.746094 71.917969 248.125 71.917969 C 248.503906 71.917969 248.878906 71.878906 249.25 71.804688 C 249.621094 71.730469 249.980469 71.625 250.332031 71.476562 C 250.679688 71.332031 251.011719 71.15625 251.328125 70.945312 C 251.640625 70.734375 251.933594 70.496094 252.203125 70.226562 C 252.46875 69.960938 252.707031 69.667969 252.917969 69.355469 C 253.128906 69.039062 253.304688 68.707031 253.449219 68.359375 C 253.597656 68.007812 253.707031 67.648438 253.777344 67.277344 C 253.851562 66.90625 253.890625 66.53125 253.890625 66.152344 C 253.890625 65.773438 253.851562 65.398438 253.777344 65.027344 C 253.707031 64.65625 253.597656 64.296875 253.449219 63.945312 C 253.304688 63.597656 253.128906 63.265625 252.917969 62.949219 C 252.707031 62.632812 252.46875 62.34375 252.203125 62.074219 C 251.933594 61.808594 251.640625 61.570312 251.328125 61.359375 C 251.011719 61.148438 250.679688 60.96875 250.332031 60.824219 C 249.980469 60.679688 249.621094 60.570312 249.25 60.496094 C 248.878906 60.425781 248.503906 60.386719 248.125 60.386719 Z M 248.125 60.386719 " fill-opacity="1" fill-rule="nonzero"/><path fill="#fbcd59" d="M 230.828125 210.277344 C 230.449219 210.277344 230.078125 210.316406 229.703125 210.390625 C 229.332031 210.464844 228.972656 210.574219 228.625 210.71875 C 228.273438 210.863281 227.941406 211.039062 227.625 211.25 C 227.3125 211.460938 227.019531 211.699219 226.753906 211.96875 C 226.484375 212.234375 226.246094 212.527344 226.035156 212.839844 C 225.824219 213.15625 225.648438 213.488281 225.503906 213.835938 C 225.359375 214.1875 225.25 214.546875 225.175781 214.917969 C 225.101562 215.289062 225.066406 215.664062 225.066406 216.042969 C 225.066406 216.421875 225.101562 216.796875 225.175781 217.167969 C 225.25 217.539062 225.359375 217.898438 225.503906 218.25 C 225.648438 218.601562 225.824219 218.933594 226.035156 219.246094 C 226.246094 219.5625 226.484375 219.851562 226.753906 220.121094 C 227.019531 220.386719 227.3125 220.625 227.625 220.835938 C 227.941406 221.046875 228.273438 221.226562 228.625 221.371094 C 228.972656 221.515625 229.332031 221.625 229.703125 221.699219 C 230.078125 221.773438 230.449219 221.808594 230.828125 221.808594 C 231.207031 221.808594 231.582031 221.773438 231.953125 221.699219 C 232.324219 221.625 232.6875 221.515625 233.035156 221.371094 C 233.386719 221.226562 233.71875 221.046875 234.03125 220.835938 C 234.347656 220.625 234.636719 220.386719 234.90625 220.121094 C 235.175781 219.851562 235.414062 219.5625 235.625 219.246094 C 235.832031 218.933594 236.011719 218.601562 236.15625 218.25 C 236.300781 217.898438 236.410156 217.539062 236.484375 217.167969 C 236.558594 216.796875 236.59375 216.421875 236.59375 216.042969 C 236.59375 215.664062 236.558594 215.289062 236.484375 214.917969 C 236.410156 214.546875 236.300781 214.1875 236.15625 213.835938 C 236.011719 213.488281 235.832031 213.15625 235.625 212.839844 C 235.414062 212.527344 235.175781 212.234375 234.90625 211.96875 C 234.636719 211.699219 234.347656 211.460938 234.03125 211.25 C 233.71875 211.039062 233.386719 210.863281 233.035156 210.71875 C 232.6875 210.574219 232.324219 210.464844 231.953125 210.390625 C 231.582031 210.316406 231.207031 210.277344 230.828125 210.277344 Z M 40.582031 167.039062 C 39.824219 167.039062 39.074219 167.113281 38.332031 167.261719 C 37.589844 167.410156 36.871094 167.628906 36.171875 167.917969 C 35.46875 168.207031 34.804688 168.5625 34.175781 168.984375 C 33.546875 169.40625 32.964844 169.882812 32.429688 170.417969 C 31.894531 170.953125 31.417969 171.535156 30.996094 172.164062 C 30.574219 172.792969 30.21875 173.457031 29.929688 174.160156 C 29.640625 174.859375 29.421875 175.578125 29.273438 176.320312 C 29.125 177.0625 29.050781 177.8125 29.050781 178.570312 C 29.050781 179.328125 29.125 180.078125 29.273438 180.820312 C 29.421875 181.5625 29.640625 182.285156 29.929688 182.984375 C 30.21875 183.683594 30.574219 184.347656 30.996094 184.976562 C 31.417969 185.605469 31.894531 186.1875 32.429688 186.722656 C 32.964844 187.257812 33.546875 187.738281 34.175781 188.15625 C 34.804688 188.578125 35.46875 188.933594 36.171875 189.222656 C 36.871094 189.511719 37.589844 189.730469 38.332031 189.878906 C 39.074219 190.027344 39.824219 190.101562 40.582031 190.101562 C 41.339844 190.101562 42.089844 190.027344 42.832031 189.878906 C 43.574219 189.730469 44.296875 189.511719 44.996094 189.222656 C 45.695312 188.933594 46.359375 188.578125 46.988281 188.15625 C 47.617188 187.738281 48.199219 187.257812 48.734375 186.722656 C 49.269531 186.1875 49.75 185.605469 50.167969 184.976562 C 50.589844 184.347656 50.945312 183.683594 51.234375 182.984375 C 51.523438 182.285156 51.742188 181.5625 51.890625 180.820312 C 52.039062 180.078125 52.113281 179.328125 52.113281 178.570312 C 52.113281 177.8125 52.039062 177.0625 51.890625 176.320312 C 51.742188 175.578125 51.523438 174.859375 51.234375 174.160156 C 50.945312 173.457031 50.589844 172.792969 50.167969 172.164062 C 49.75 171.535156 49.269531 170.953125 48.734375 170.417969 C 48.199219 169.882812 47.617188 169.40625 46.988281 168.984375 C 46.359375 168.5625 45.695312 168.207031 44.996094 167.917969 C 44.296875 167.628906 43.574219 167.410156 42.832031 167.261719 C 42.089844 167.113281 41.339844 167.039062 40.582031 167.039062 Z M 40.582031 167.039062 " fill-opacity="1" fill-rule="nonzero"/><g clip-path="url(#860bbbfdbd)"><path fill="#00a5a5" d="M 69.40625 241.988281 C 69.027344 241.988281 68.65625 242.023438 68.28125 242.097656 C 67.910156 242.171875 67.550781 242.28125 67.203125 242.425781 C 66.851562 242.570312 66.519531 242.746094 66.203125 242.957031 C 65.890625 243.167969 65.597656 243.40625 65.332031 243.675781 C 65.0625 243.941406 64.824219 244.234375 64.613281 244.546875 C 64.402344 244.863281 64.226562 245.195312 64.082031 245.546875 C 63.9375 245.894531 63.828125 246.253906 63.753906 246.625 C 63.679688 247 63.644531 247.375 63.644531 247.75 C 63.644531 248.128906 63.679688 248.503906 63.753906 248.875 C 63.828125 249.246094 63.9375 249.609375 64.082031 249.957031 C 64.226562 250.308594 64.402344 250.640625 64.613281 250.953125 C 64.824219 251.269531 65.0625 251.558594 65.332031 251.828125 C 65.597656 252.097656 65.890625 252.335938 66.203125 252.546875 C 66.519531 252.753906 66.851562 252.933594 67.203125 253.078125 C 67.550781 253.222656 67.910156 253.332031 68.28125 253.40625 C 68.65625 253.480469 69.027344 253.515625 69.40625 253.515625 C 69.785156 253.515625 70.160156 253.480469 70.53125 253.40625 C 70.902344 253.332031 71.265625 253.222656 71.613281 253.078125 C 71.964844 252.933594 72.296875 252.753906 72.609375 252.546875 C 72.925781 252.335938 73.214844 252.097656 73.484375 251.828125 C 73.75 251.558594 73.992188 251.269531 74.203125 250.953125 C 74.410156 250.640625 74.589844 250.308594 74.734375 249.957031 C 74.878906 249.609375 74.988281 249.246094 75.0625 248.875 C 75.136719 248.503906 75.171875 248.128906 75.171875 247.75 C 75.171875 247.375 75.136719 247 75.0625 246.625 C 74.988281 246.253906 74.878906 245.894531 74.734375 245.546875 C 74.589844 245.195312 74.410156 244.863281 74.203125 244.546875 C 73.992188 244.234375 73.75 243.941406 73.484375 243.675781 C 73.214844 243.40625 72.925781 243.167969 72.609375 242.957031 C 72.296875 242.746094 71.964844 242.570312 71.613281 242.425781 C 71.265625 242.28125 70.902344 242.171875 70.53125 242.097656 C 70.160156 242.023438 69.785156 241.988281 69.40625 241.988281 Z M 69.40625 241.988281 " fill-opacity="1" fill-rule="nonzero"/></g><path fill="#ffffff" d="M 50.671875 143.980469 C 50.199219 143.980469 49.730469 144.027344 49.265625 144.117188 C 48.800781 144.210938 48.351562 144.347656 47.914062 144.527344 C 47.476562 144.710938 47.0625 144.933594 46.667969 145.195312 C 46.273438 145.457031 45.910156 145.757812 45.574219 146.089844 C 45.242188 146.425781 44.941406 146.789062 44.679688 147.183594 C 44.417969 147.578125 44.195312 147.992188 44.011719 148.429688 C 43.832031 148.867188 43.695312 149.316406 43.601562 149.78125 C 43.511719 150.246094 43.464844 150.714844 43.464844 151.1875 C 43.464844 151.660156 43.511719 152.128906 43.601562 152.59375 C 43.695312 153.058594 43.832031 153.507812 44.011719 153.945312 C 44.195312 154.382812 44.417969 154.796875 44.679688 155.191406 C 44.941406 155.582031 45.242188 155.949219 45.574219 156.28125 C 45.910156 156.617188 46.273438 156.914062 46.667969 157.179688 C 47.0625 157.441406 47.476562 157.664062 47.914062 157.84375 C 48.351562 158.027344 48.800781 158.164062 49.265625 158.253906 C 49.730469 158.347656 50.199219 158.394531 50.671875 158.394531 C 51.144531 158.394531 51.613281 158.347656 52.078125 158.253906 C 52.542969 158.164062 52.992188 158.027344 53.429688 157.84375 C 53.867188 157.664062 54.28125 157.441406 54.675781 157.179688 C 55.066406 156.914062 55.433594 156.617188 55.765625 156.28125 C 56.101562 155.949219 56.398438 155.582031 56.664062 155.191406 C 56.925781 154.796875 57.148438 154.382812 57.328125 153.945312 C 57.511719 153.507812 57.648438 153.058594 57.738281 152.59375 C 57.832031 152.128906 57.878906 151.660156 57.878906 151.1875 C 57.878906 150.714844 57.832031 150.246094 57.738281 149.78125 C 57.648438 149.316406 57.511719 148.867188 57.328125 148.429688 C 57.148438 147.992188 56.925781 147.578125 56.664062 147.183594 C 56.398438 146.789062 56.101562 146.425781 55.765625 146.089844 C 55.433594 145.757812 55.066406 145.457031 54.675781 145.195312 C 54.28125 144.933594 53.867188 144.710938 53.429688 144.527344 C 52.992188 144.347656 52.542969 144.210938 52.078125 144.117188 C 51.613281 144.027344 51.144531 143.980469 50.671875 143.980469 Z M 50.671875 143.980469 " fill-opacity="1" fill-rule="nonzero"/><path fill="#f1bc19" d="M 57.878906 187.21875 C 57.496094 187.21875 57.128906 187.292969 56.773438 187.4375 C 56.421875 187.585938 56.109375 187.792969 55.839844 188.0625 C 55.570312 188.332031 55.359375 188.644531 55.214844 188.996094 C 55.066406 189.351562 54.996094 189.71875 54.996094 190.101562 C 54.996094 190.484375 55.066406 190.851562 55.214844 191.203125 C 55.359375 191.558594 55.570312 191.867188 55.839844 192.140625 C 56.109375 192.410156 56.421875 192.617188 56.773438 192.765625 C 57.128906 192.910156 57.496094 192.984375 57.878906 192.984375 C 58.261719 192.984375 58.628906 192.910156 58.980469 192.765625 C 59.332031 192.617188 59.644531 192.410156 59.914062 192.140625 C 60.1875 191.867188 60.394531 191.558594 60.539062 191.203125 C 60.6875 190.851562 60.761719 190.484375 60.761719 190.101562 C 60.761719 189.71875 60.6875 189.351562 60.539062 188.996094 C 60.394531 188.644531 60.1875 188.332031 59.914062 188.0625 C 59.644531 187.792969 59.332031 187.585938 58.980469 187.4375 C 58.628906 187.292969 58.261719 187.21875 57.878906 187.21875 Z M 57.878906 187.21875 " fill-opacity="1" fill-rule="nonzero"/><path fill="#ffffff" d="M 227.945312 92.09375 C 227.566406 92.09375 227.195312 92.167969 226.84375 92.3125 C 226.492188 92.460938 226.179688 92.667969 225.910156 92.9375 C 225.636719 93.210938 225.429688 93.519531 225.285156 93.875 C 225.136719 94.226562 225.066406 94.59375 225.066406 94.976562 C 225.066406 95.359375 225.136719 95.726562 225.285156 96.082031 C 225.429688 96.433594 225.636719 96.746094 225.910156 97.015625 C 226.179688 97.285156 226.492188 97.492188 226.84375 97.640625 C 227.195312 97.785156 227.566406 97.859375 227.945312 97.859375 C 228.328125 97.859375 228.695312 97.785156 229.050781 97.640625 C 229.402344 97.492188 229.714844 97.285156 229.984375 97.015625 C 230.253906 96.746094 230.464844 96.433594 230.609375 96.082031 C 230.757812 95.726562 230.828125 95.359375 230.828125 94.976562 C 230.828125 94.59375 230.757812 94.226562 230.609375 93.875 C 230.464844 93.519531 230.253906 93.210938 229.984375 92.9375 C 229.714844 92.667969 229.402344 92.460938 229.050781 92.3125 C 228.695312 92.167969 228.328125 92.09375 227.945312 92.09375 Z M 227.945312 92.09375 " fill-opacity="1" fill-rule="nonzero"/><path fill="#fdfcef" d="M 159.015625 74.800781 L 193.355469 109.140625 L 193.355469 195.867188 C 193.355469 202.226562 188.183594 207.394531 181.828125 207.394531 L 101.117188 207.394531 C 94.757812 207.394531 89.585938 202.226562 89.585938 195.867188 L 89.585938 86.328125 C 89.585938 79.972656 94.757812 74.800781 101.117188 74.800781 L 159.015625 74.800781 " fill-opacity="1" fill-rule="nonzero"/><path fill="#f6cca4" d="M 156.964844 73.359375 L 156.964844 96.785156 C 156.964844 104.742188 163.414062 111.195312 171.371094 111.199219 L 194.796875 111.207031 Z M 156.964844 73.359375 " fill-opacity="1" fill-rule="nonzero"/><path fill="#472b29" d="M 157.09375 75.953125 L 192.203125 111.0625 L 192.203125 195.867188 C 192.203125 201.585938 187.546875 206.242188 181.828125 206.242188 L 101.117188 206.242188 C 95.394531 206.242188 90.738281 201.585938 90.738281 195.867188 L 90.738281 86.328125 C 90.738281 80.609375 95.394531 75.953125 101.117188 75.953125 L 157.09375 75.953125 M 157.574219 71.917969 L 101.117188 71.917969 C 93.15625 71.917969 86.703125 78.371094 86.703125 86.328125 L 86.703125 195.867188 C 86.703125 203.824219 93.15625 210.277344 101.117188 210.277344 L 181.828125 210.277344 C 189.785156 210.277344 196.238281 203.824219 196.238281 195.867188 L 196.238281 110.582031 C 196.238281 109.820312 195.9375 109.085938 195.394531 108.546875 L 159.609375 72.761719 C 159.070312 72.21875 158.335938 71.917969 157.574219 71.917969 Z M 157.574219 71.917969 " fill-opacity="1" fill-rule="nonzero"/><path fill="#472b29" d="M 183.628906 155.511719 C 183.03125 155.511719 182.546875 155.027344 182.546875 154.429688 L 182.546875 145.0625 C 182.546875 144.464844 183.03125 143.980469 183.628906 143.980469 C 184.226562 143.980469 184.710938 144.464844 184.710938 145.0625 L 184.710938 154.429688 C 184.710938 155.027344 184.226562 155.511719 183.628906 155.511719 Z M 183.628906 141.097656 C 183.03125 141.097656 182.546875 140.613281 182.546875 140.015625 L 182.546875 133.53125 C 182.546875 132.933594 183.03125 132.449219 183.628906 132.449219 C 184.226562 132.449219 184.710938 132.933594 184.710938 133.53125 L 184.710938 140.015625 C 184.710938 140.613281 184.226562 141.097656 183.628906 141.097656 Z M 174.980469 198.75 L 107.960938 198.75 C 102.597656 198.75 98.234375 194.382812 98.234375 189.019531 L 98.234375 96.058594 C 98.234375 93.679688 99.128906 91.378906 100.753906 89.570312 C 101.148438 89.125 101.832031 89.089844 102.28125 89.488281 C 102.722656 89.890625 102.757812 90.570312 102.359375 91.015625 C 101.09375 92.425781 100.390625 94.214844 100.390625 96.058594 L 100.390625 189.019531 C 100.390625 193.191406 103.789062 196.585938 107.957031 196.585938 L 174.976562 196.585938 C 179.148438 196.585938 182.542969 193.191406 182.542969 189.019531 L 182.542969 159.472656 C 182.542969 158.878906 183.027344 158.394531 183.625 158.394531 C 184.222656 158.394531 184.710938 158.878906 184.710938 159.472656 L 184.710938 189.019531 C 184.710938 194.382812 180.34375 198.75 174.980469 198.75 Z M 170.296875 110.109375 C 163.542969 110.109375 158.046875 104.613281 158.046875 97.859375 L 158.046875 74.800781 L 155.882812 74.800781 L 155.882812 97.859375 C 155.882812 105.820312 162.335938 112.273438 170.296875 112.273438 L 193.355469 112.273438 L 193.355469 110.109375 Z M 170.296875 110.109375 " fill-opacity="1" fill-rule="nonzero"/><path fill="#bd977c" d="M 124.175781 141.820312 C 123.621094 141.820312 123.070312 142.027344 122.648438 142.449219 L 114 151.097656 C 113.160156 151.9375 113.160156 153.3125 114 154.15625 L 122.648438 162.804688 C 123.464844 163.617188 124.886719 163.617188 125.707031 162.804688 C 126.546875 161.960938 126.546875 160.589844 125.707031 159.746094 L 118.585938 152.628906 L 125.707031 145.507812 C 126.546875 144.667969 126.546875 143.292969 125.707031 142.449219 C 125.28125 142.03125 124.730469 141.820312 124.175781 141.820312 Z M 158.765625 141.820312 C 158.210938 141.820312 157.660156 142.027344 157.238281 142.449219 C 156.398438 143.292969 156.398438 144.664062 157.238281 145.507812 L 164.359375 152.628906 L 157.238281 159.746094 C 156.398438 160.589844 156.398438 161.960938 157.238281 162.804688 C 158.054688 163.621094 159.476562 163.621094 160.296875 162.804688 L 168.945312 154.160156 C 169.785156 153.316406 169.785156 151.945312 168.945312 151.101562 L 160.296875 142.453125 C 159.875 142.03125 159.320312 141.820312 158.765625 141.820312 Z M 150.125 133.171875 C 149.304688 133.171875 148.519531 133.636719 148.152344 134.425781 L 130.859375 171.902344 C 130.363281 172.980469 130.835938 174.269531 131.914062 174.769531 C 132.96875 175.253906 134.296875 174.761719 134.785156 173.710938 L 152.082031 136.238281 C 152.578125 135.15625 152.105469 133.867188 151.023438 133.371094 C 150.734375 133.234375 150.425781 133.171875 150.125 133.171875 Z M 150.125 133.171875 " fill-opacity="1" fill-rule="nonzero"/><path fill="#472b29" d="M 124.175781 142.539062 C 124.558594 142.539062 124.921875 142.6875 125.195312 142.960938 C 125.46875 143.234375 125.617188 143.597656 125.617188 143.980469 C 125.617188 144.363281 125.46875 144.726562 125.195312 144.996094 L 118.582031 151.609375 L 117.566406 152.628906 L 125.195312 160.257812 C 125.46875 160.527344 125.617188 160.890625 125.617188 161.277344 C 125.617188 161.660156 125.46875 162.023438 125.195312 162.292969 C 124.921875 162.566406 124.558594 162.71875 124.175781 162.71875 C 123.792969 162.71875 123.429688 162.566406 123.160156 162.292969 L 114.511719 153.644531 C 114.238281 153.375 114.085938 153.011719 114.085938 152.628906 C 114.085938 152.246094 114.238281 151.882812 114.511719 151.609375 L 123.160156 142.960938 C 123.429688 142.6875 123.792969 142.539062 124.175781 142.539062 M 124.175781 141.097656 C 123.4375 141.097656 122.699219 141.378906 122.136719 141.941406 L 113.492188 150.589844 C 112.363281 151.71875 112.363281 153.539062 113.492188 154.664062 L 122.136719 163.3125 C 122.699219 163.875 123.4375 164.15625 124.175781 164.15625 C 124.914062 164.15625 125.652344 163.875 126.214844 163.3125 C 127.339844 162.1875 127.339844 160.363281 126.214844 159.238281 L 119.605469 152.628906 L 126.214844 146.019531 C 127.339844 144.890625 127.339844 143.070312 126.214844 141.941406 C 125.652344 141.378906 124.914062 141.097656 124.175781 141.097656 Z M 158.765625 142.539062 C 159.148438 142.539062 159.511719 142.6875 159.785156 142.960938 L 168.429688 151.609375 C 168.707031 151.882812 168.855469 152.246094 168.855469 152.628906 C 168.855469 153.011719 168.707031 153.375 168.429688 153.644531 L 159.785156 162.292969 C 159.511719 162.566406 159.148438 162.71875 158.765625 162.71875 C 158.382812 162.71875 158.019531 162.566406 157.75 162.292969 C 157.476562 162.023438 157.324219 161.660156 157.324219 161.277344 C 157.324219 160.890625 157.476562 160.527344 157.75 160.257812 L 164.359375 153.648438 L 165.375 152.628906 L 164.355469 151.609375 L 157.746094 144.996094 C 157.476562 144.726562 157.324219 144.363281 157.324219 143.980469 C 157.324219 143.597656 157.476562 143.234375 157.75 142.960938 C 158.019531 142.6875 158.382812 142.539062 158.765625 142.539062 M 158.765625 141.097656 C 158.027344 141.097656 157.289062 141.378906 156.726562 141.941406 C 155.601562 143.070312 155.601562 144.890625 156.726562 146.019531 L 163.339844 152.628906 L 156.726562 159.238281 C 155.601562 160.363281 155.601562 162.1875 156.726562 163.3125 C 157.289062 163.875 158.027344 164.15625 158.765625 164.15625 C 159.503906 164.15625 160.242188 163.875 160.804688 163.3125 L 169.453125 154.664062 C 170.578125 153.539062 170.578125 151.71875 169.453125 150.589844 L 160.804688 141.941406 C 160.242188 141.378906 159.503906 141.097656 158.765625 141.097656 Z M 150.121094 133.890625 C 150.328125 133.890625 150.53125 133.9375 150.722656 134.023438 C 151.445312 134.359375 151.761719 135.214844 151.429688 135.9375 L 134.136719 173.410156 C 133.898438 173.917969 133.382812 174.246094 132.824219 174.246094 C 132.613281 174.246094 132.410156 174.203125 132.222656 174.113281 C 131.5 173.78125 131.183594 172.925781 131.515625 172.199219 L 148.808594 134.726562 C 149.042969 134.21875 149.558594 133.890625 150.121094 133.890625 M 150.121094 132.449219 C 149.03125 132.449219 147.988281 133.070312 147.5 134.125 L 130.207031 171.597656 C 129.539062 173.042969 130.171875 174.757812 131.617188 175.421875 C 132.007812 175.605469 132.417969 175.6875 132.824219 175.6875 C 133.914062 175.6875 134.957031 175.070312 135.445312 174.011719 L 152.738281 136.539062 C 153.40625 135.097656 152.773438 133.382812 151.328125 132.714844 C 150.933594 132.535156 150.523438 132.449219 150.121094 132.449219 Z M 150.121094 132.449219 " fill-opacity="1" fill-rule="nonzero"/></svg>